<svg width="25" height="24" viewBox="0 0 25 24" fill="none" xmlns="http://www.w3.org/2000/svg">
<path fill-rule="evenodd" clip-rule="evenodd" d="M3.6416 3.00802C3.54394 3.00066 3.40841 3 3.15424 3H1.5C0.947715 3 0.5 2.55229 0.5 2C0.5 1.44772 0.947715 1 1.5 1H3.15424C3.16367 1 3.1731 1 3.18252 1C3.39719 0.999976 3.60972 0.99995 3.79187 1.01367C3.99456 1.02895 4.23005 1.06482 4.47366 1.17349C4.81651 1.32642 5.10939 1.57276 5.31881 1.88434C5.46761 2.10573 5.5433 2.33159 5.59308 2.52866C5.63781 2.70576 5.6742 2.91516 5.71095 3.12665C5.71257 3.13594 5.71418 3.14523 5.7158 3.15452L5.95407 4.52459L18.9681 4.90982C19.478 4.9249 19.9188 4.93793 20.2817 4.9779C20.6654 5.02015 21.0457 5.0996 21.4106 5.29398C21.9634 5.58852 22.4102 6.04874 22.6883 6.61008C22.8718 6.98053 22.9399 7.36306 22.9708 7.74778C23 8.11176 23 8.55266 23 9.06286V9.13661C23 9.61608 23 10.032 22.9732 10.3769C22.9447 10.7426 22.8819 11.1059 22.7143 11.4619C22.4593 12.0037 22.0479 12.4568 21.5332 12.7628C21.195 12.9639 20.8395 13.0614 20.4782 13.125C20.1375 13.185 19.7235 13.225 19.2463 13.2712L9.51239 14.2132C9.0232 14.2605 8.59935 14.3015 8.24572 14.3078C7.87105 14.3144 7.49541 14.2853 7.11828 14.1467C6.55271 13.939 6.0628 13.5657 5.71236 13.0756C5.47869 12.7487 5.35092 12.3943 5.25782 12.0313C5.16995 11.6887 5.09701 11.2692 5.01282 10.785L3.74537 3.4972C3.70182 3.24679 3.67795 3.11338 3.65397 3.01842C3.65312 3.01505 3.65229 3.01185 3.6515 3.00881C3.64837 3.00855 3.64507 3.00828 3.6416 3.00802ZM6.30385 6.53582L6.97694 10.4061C7.06924 10.9368 7.12925 11.2776 7.19512 11.5344C7.25794 11.7794 7.30763 11.8681 7.33929 11.9123C7.4561 12.0757 7.61941 12.2001 7.80793 12.2694C7.85903 12.2882 7.95772 12.3125 8.21054 12.3081C8.47562 12.3034 8.82011 12.2708 9.35632 12.2189L19.0177 11.2839C19.5411 11.2333 19.8768 11.2001 20.1316 11.1553C20.3743 11.1126 20.4649 11.0712 20.5111 11.0438C20.6826 10.9417 20.8198 10.7907 20.9048 10.6101C20.9277 10.5615 20.9601 10.4673 20.9792 10.2216C20.9993 9.96369 21 9.62638 21 9.10051C21 8.54201 20.9993 8.18214 20.9772 7.90781C20.9562 7.64531 20.9204 7.5469 20.8961 7.49781C20.8034 7.3107 20.6545 7.15729 20.4702 7.05911C20.4218 7.03336 20.3245 6.99471 20.0628 6.96588C19.7892 6.93575 19.4295 6.92435 18.8713 6.90783L6.30385 6.53582Z" fill="white"/>
<path fill-rule="evenodd" clip-rule="evenodd" d="M9 17.5C8.44772 17.5 8 17.9477 8 18.5C8 19.0523 8.44772 19.5 9 19.5C9.55228 19.5 10 19.0523 10 18.5C10 17.9477 9.55228 17.5 9 17.5ZM6 18.5C6 16.8431 7.34315 15.5 9 15.5C10.6569 15.5 12 16.8431 12 18.5C12 20.1569 10.6569 21.5 9 21.5C7.34315 21.5 6 20.1569 6 18.5Z" fill="white"/>
<path fill-rule="evenodd" clip-rule="evenodd" d="M18.5 17.5C17.9477 17.5 17.5 17.9477 17.5 18.5C17.5 19.0523 17.9477 19.5 18.5 19.5C19.0523 19.5 19.5 19.0523 19.5 18.5C19.5 17.9477 19.0523 17.5 18.5 17.5ZM15.5 18.5C15.5 16.8431 16.8431 15.5 18.5 15.5C20.1569 15.5 21.5 16.8431 21.5 18.5C21.5 20.1569 20.1569 21.5 18.5 21.5C16.8431 21.5 15.5 20.1569 15.5 18.5Z" fill="white"/>
</svg>
