<svg width="25" height="24" viewBox="0 0 25 24" fill="none" xmlns="http://www.w3.org/2000/svg">
<g clip-path="url(#clip0_280_1014)">
<path d="M8.15591 18.6677C6.7721 18.6677 5.65035 19.7895 5.65035 21.1733C5.65035 22.5571 6.77215 23.6788 8.15591 23.6788C9.53972 23.6788 10.6615 22.557 10.6615 21.1733C10.6615 19.7895 9.53972 18.6677 8.15591 18.6677ZM8.15591 22.5653C7.38714 22.5653 6.76394 21.9421 6.76394 21.1733C6.76394 20.4046 7.38714 19.7814 8.15591 19.7814C8.92468 19.7814 9.54787 20.4046 9.54787 21.1733C9.54793 21.9421 8.92468 22.5653 8.15591 22.5653Z" fill="#333333"/>
<path d="M18.735 18.6677C17.3512 18.6677 16.2295 19.7895 16.2295 21.1733C16.2295 22.5571 17.3513 23.6788 18.735 23.6788C20.1188 23.6788 21.2406 22.557 21.2406 21.1733C21.2406 19.7895 20.1188 18.6677 18.735 18.6677ZM18.735 22.5653C17.9663 22.5653 17.3431 21.9421 17.3431 21.1733C17.3431 20.4046 17.9663 19.7814 18.735 19.7814C19.5038 19.7814 20.127 20.4046 20.127 21.1733C20.1271 21.9421 19.5038 22.5653 18.735 22.5653Z" fill="#333333"/>
<path d="M24.3865 4.05186C24.2706 3.92519 24.1119 3.8459 23.9411 3.82912L5.81741 3.57856L5.3163 2.04736C4.96327 1.02377 4.00475 0.332746 2.92206 0.321289H1.0568C0.749277 0.321289 0.5 0.570566 0.5 0.878085C0.5 1.1856 0.749277 1.43488 1.0568 1.43488H2.92206C3.52745 1.44826 4.06054 1.83698 4.25839 2.40929L7.79404 13.0719L7.51567 13.7122C7.20517 14.5129 7.29842 15.4141 7.76623 16.1343C8.22956 16.8416 9.00904 17.2781 9.85423 17.3035H20.6839C20.9914 17.3035 21.2407 17.0543 21.2407 16.7467C21.2407 16.4392 20.9914 16.1899 20.6839 16.1899H9.85418C9.37688 16.178 8.93753 15.9269 8.6849 15.5218C8.43509 15.1216 8.38377 14.6286 8.54571 14.1854L8.76845 13.6843L20.489 12.4594C21.7764 12.3176 22.8354 11.3812 23.1338 10.1208L24.4701 4.52505C24.5303 4.36391 24.4984 4.18268 24.3865 4.05186ZM22.048 9.87032C21.8673 10.6817 21.1784 11.2801 20.3498 11.3458L8.76845 12.5429L6.17934 4.69215L23.2451 4.94271L22.048 9.87032Z" fill="#333333"/>
</g>
<defs>
<clipPath id="clip0_280_1014">
<rect width="24" height="24" fill="white" transform="translate(0.5)"/>
</clipPath>
</defs>
</svg>
