<svg width="128" height="128" viewBox="0 0 128 128" fill="none" xmlns="http://www.w3.org/2000/svg">
<path d="M107.819 100.584C105.241 92.9116 94.9662 88.109 87.6407 84.8898C84.771 83.6328 76.826 81.5004 75.8711 77.8869C75.5294 76.5852 75.5755 75.3576 75.8558 74.1813C75.4142 74.2658 74.9662 74.3157 74.5028 74.3157H69.7297C65.9191 74.3157 62.8228 71.2156 62.8228 67.4076C62.8228 63.6021 65.9204 60.5084 69.7297 60.5084H74.5028C76.0798 60.5084 77.5748 61.0421 78.7806 61.9944C80.5483 61.7589 82.2532 61.3813 83.843 60.886C85.9307 56.5122 87.5588 51.2821 87.9236 46.7804C89.4814 27.5189 77.6734 16.2498 60.7428 18.198C48.4331 19.6149 41.0795 28.7938 40.2846 40.6108C39.4807 52.6556 43.9467 61.5516 48.6903 68.077C50.7678 70.9301 52.9502 72.7644 52.6148 76.2024C52.2257 80.2677 47.8788 81.4005 44.7697 82.6498C41.0859 84.1295 37.1179 86.3746 35.2439 87.4127C28.7889 90.9775 21.7041 95.2706 20.1118 101.143C16.5854 114.158 28.4945 118.101 38.3262 119.921C46.7639 121.477 56.2782 121.6 64.1041 121.6C78.2596 121.6 103.714 121.033 107.819 110.393C108.986 107.373 108.486 102.561 107.819 100.584Z" fill="white"/>
<path d="M77.5229 65.4634C76.8752 64.4766 75.768 63.8212 74.5047 63.8212H69.7315C67.7399 63.8212 66.1335 65.4302 66.1335 67.4116C66.1335 69.4007 67.7399 71.0122 69.7315 71.0122H74.5047C75.8986 71.0122 77.0813 70.2173 77.6778 69.0679C84.3325 68.5444 90.1207 66.5118 94.1834 63.5102C95.1165 64.1118 96.2199 64.4637 97.4103 64.4637H97.7098C101.028 64.4637 103.71 61.7783 103.71 58.4567V46.4657C103.71 44.0772 102.31 42.0164 100.29 41.0589C99.4096 21.8039 83.4698 6.40039 63.9984 6.40039C44.5271 6.40039 28.5847 21.8039 27.7079 41.0589C25.6842 42.0177 24.2852 44.0772 24.2852 46.4657V58.4567C24.2852 61.7783 26.9706 64.4637 30.2807 64.4637H30.584C33.8967 64.4637 36.5834 61.7783 36.5834 58.4567V46.4657C36.5834 44.1117 35.2228 42.0817 33.2452 41.0999C34.1015 24.8759 47.5645 11.9441 63.9984 11.9441C80.4259 11.9441 93.8954 24.8759 94.7479 41.0999C92.7728 42.083 91.4135 44.1117 91.4135 46.4657V58.4567C91.4135 59.2529 91.5683 59.994 91.841 60.6865C88.344 63.1889 83.2535 64.9719 77.5229 65.4634Z" fill="white"/>
</svg>
