<svg width="16" height="16" viewBox="0 0 16 16" fill="none" xmlns="http://www.w3.org/2000/svg">
<g clip-path="url(#clip0_80_1746)">
<path d="M15.2648 8.00055L15.9668 6.16967C16.0438 5.96768 15.9838 5.7387 15.8148 5.60171L14.2929 4.36779L13.9849 2.43093C13.9509 2.21694 13.7829 2.04995 13.5689 2.01595L11.6321 1.70798L10.3991 0.18508C10.2632 0.0160915 10.0292 -0.0439044 9.83218 0.0330903L8.00031 0.736042L6.16943 0.0340903C5.96645 -0.0439044 5.73946 0.0180914 5.60247 0.18608L4.36856 1.70898L2.43169 2.01695C2.2187 2.05095 2.05072 2.21894 2.01672 2.43193L1.70874 4.36879L0.185844 5.60271C0.017855 5.7387 -0.0431408 5.96768 0.0338539 6.16967L0.735806 8.00055L0.0338539 9.83142C-0.0441408 10.0334 0.017855 10.2624 0.185844 10.3984L1.70874 11.6313L2.01672 13.5682C2.05072 13.7822 2.2177 13.9501 2.43169 13.9841L4.36856 14.2921L5.60247 15.814C5.73946 15.984 5.96845 16.044 6.17043 15.966L8.00031 15.2651L9.83119 15.967C9.88918 15.989 9.94918 16 10.0102 16C10.1572 16 10.3022 15.935 10.3991 15.814L11.6321 14.2921L13.5689 13.9841C13.7829 13.9501 13.9509 13.7822 13.9849 13.5682L14.2929 11.6313L15.8148 10.3984C15.9838 10.2614 16.0438 10.0334 15.9668 9.83142L15.2648 8.00055Z" fill="#31B9B0"/>
<path d="M6.50014 7.0006C5.6732 7.0006 5.00024 6.32765 5.00024 5.50071C5.00024 4.67376 5.6732 4.00081 6.50014 4.00081C7.32709 4.00081 8.00004 4.67376 8.00004 5.50071C8.00004 6.32765 7.32709 7.0006 6.50014 7.0006ZM6.50014 5.00074C6.22416 5.00074 6.00018 5.22473 6.00018 5.50071C6.00018 5.77669 6.22416 6.00067 6.50014 6.00067C6.77612 6.00067 7.00011 5.77669 7.00011 5.50071C7.00011 5.22473 6.77612 5.00074 6.50014 5.00074Z" fill="#FAFAFA"/>
<path d="M9.4999 12.0003C8.67295 12.0003 8 11.3273 8 10.5004C8 9.67343 8.67295 9.00047 9.4999 9.00047C10.3268 9.00047 10.9998 9.67343 10.9998 10.5004C10.9998 11.3273 10.3268 12.0003 9.4999 12.0003ZM9.4999 10.0004C9.22492 10.0004 8.99993 10.2254 8.99993 10.5004C8.99993 10.7754 9.22492 11.0003 9.4999 11.0003C9.77488 11.0003 9.99986 10.7754 9.99986 10.5004C9.99986 10.2254 9.77488 10.0004 9.4999 10.0004Z" fill="#FAFAFA"/>
<path d="M5.5005 12.0003C5.3995 12.0003 5.29851 11.9703 5.21052 11.9073C4.98553 11.7463 4.93354 11.4343 5.09452 11.2093L10.0942 4.2098C10.2552 3.98481 10.5672 3.93282 10.7921 4.09381C11.0171 4.2538 11.0681 4.56677 10.9081 4.79076L5.90847 11.7903C5.80948 11.9273 5.65649 12.0003 5.5005 12.0003Z" fill="#FAFAFA"/>
</g>
<defs>
<clipPath id="clip0_80_1746">
<rect width="16" height="16" fill="white"/>
</clipPath>
</defs>
</svg>
