<svg width="24" height="24" viewBox="0 0 24 24" fill="none" xmlns="http://www.w3.org/2000/svg">
<g clip-path="url(#clip0_599_3208)">
<path d="M22.4 0H1.59998C0.716344 0 0 0.716344 0 1.59998V22.4C0 23.2837 0.716344 24 1.59998 24H22.4C23.2837 24 24 23.2837 24 22.4V1.59998C24 0.716344 23.2837 0 22.4 0ZM23.2 1.59998V3.99998H18.8V0.800016H22.4C22.8418 0.800016 23.2 1.15819 23.2 1.59998ZM13.6 3.99998V0.800016H18V4.00003L13.6 3.99998ZM8.79998 3.99998C8.57906 3.99998 8.4 3.82092 8.4 3.6V1.59998C8.39836 1.31827 8.32158 1.04212 8.17758 0.799969H12.8V3.99998H8.79998ZM22.4 23.2H1.59998C1.15814 23.2 0.799969 22.8418 0.799969 22.4V1.59998C0.799969 1.15814 1.15814 0.799969 1.59998 0.799969H6.79997C7.24181 0.799969 7.59998 1.15814 7.59998 1.59998V3.6C7.59998 4.26272 8.13727 4.8 8.79998 4.8H23.2V22.4C23.2 22.8418 22.8418 23.2 22.4 23.2Z" fill="#949494"/>
<path fill-rule="evenodd" clip-rule="evenodd" d="M2.39998 2.79997H5.99998C6.22091 2.79997 6.39997 2.62086 6.39997 2.39998C6.39997 2.17911 6.22086 2 5.99998 2H2.39998C2.17906 2 2 2.17911 2 2.39998C2 2.62086 2.17906 2.79997 2.39998 2.79997Z" fill="#949494"/>
<path d="M20.8 6H3.2C2.53728 6 2 6.53728 2 7.2V20.8C2 21.4627 2.53728 22 3.2 22H20.8C21.4627 22 22 21.4627 22 20.8V7.2C22 6.53728 21.4627 6 20.8 6ZM21.2 20.8C21.2 21.0209 21.0209 21.2 20.8 21.2H3.2C2.97908 21.2 2.80002 21.0209 2.80002 20.8V7.2C2.80002 6.97908 2.97912 6.80002 3.2 6.80002H20.8C21.0209 6.80002 21.2 6.97908 21.2 7.2V20.8Z" fill="#949494"/>
</g>
<defs>
<clipPath id="clip0_599_3208">
<rect width="24" height="24" fill="white"/>
</clipPath>
</defs>
</svg>
