<svg width="24" height="24" viewBox="0 0 24 24" fill="none" xmlns="http://www.w3.org/2000/svg">
<g clip-path="url(#clip0_676_1130)">
<mask id="mask0_676_1130" style="mask-type:luminance" maskUnits="userSpaceOnUse" x="0" y="0" width="24" height="24">
<path d="M24 0H0V24H24V0Z" fill="white"/>
</mask>
<g mask="url(#mask0_676_1130)">
<path fill-rule="evenodd" clip-rule="evenodd" d="M8.14257 3C8.14257 3.23667 8.33443 3.42858 8.57114 3.42858H12.8569V0H7.9043C8.05857 0.259453 8.14083 0.555328 8.14257 0.857156V3Z" fill="#00A99E"/>
<path fill-rule="evenodd" clip-rule="evenodd" d="M13.7144 0H18.4286V3.42858H13.7144V0Z" fill="#00A99E"/>
<path fill-rule="evenodd" clip-rule="evenodd" d="M2.57116 6.42871H21.4284C21.665 6.42871 21.8569 6.62057 21.8569 6.85729V21.4287C21.8569 21.6654 21.6651 21.8573 21.4284 21.8573H2.57116C2.33449 21.8573 2.14258 21.6654 2.14258 21.4287V6.85729C2.14258 6.62057 2.33449 6.42871 2.57116 6.42871Z" fill="#00A99E"/>
<path fill-rule="evenodd" clip-rule="evenodd" d="M23.1428 0H19.2856V3.42858H24V0.857156C24 0.383766 23.6162 0 23.1428 0Z" fill="#00A99E"/>
<path d="M7.28573 3V0.857156C7.28573 0.383766 6.90197 0 6.42858 0H0.857156C0.383766 0 0 0.383766 0 0.857156V23.1429C0 23.6162 0.383766 24 0.857156 24H23.1429C23.6163 24 24 23.6162 24 23.1428V4.28573H8.57142C7.86136 4.28573 7.28573 3.71006 7.28573 3ZM1.71427 1.28573H5.57142C5.80809 1.28573 6 1.47759 6 1.71431C6 1.95103 5.80814 2.14289 5.57142 2.14289H1.71427C1.47759 2.14289 1.28569 1.95103 1.28569 1.71431C1.28569 1.47759 1.47759 1.28573 1.71427 1.28573ZM22.7143 6.85716V21.4286C22.7143 22.1386 22.1386 22.7143 21.4285 22.7143H2.57142C1.86136 22.7143 1.28569 22.1387 1.28569 21.4286V6.85716C1.28569 6.14709 1.86131 5.57142 2.57142 5.57142H21.4286C22.1386 5.57142 22.7143 6.14705 22.7143 6.85716Z" fill="#00A99E"/>
</g>
</g>
<defs>
<clipPath id="clip0_676_1130">
<rect width="24" height="24" fill="white"/>
</clipPath>
</defs>
</svg>
