<svg width="24" height="24" viewBox="0 0 24 24" fill="none" xmlns="http://www.w3.org/2000/svg">
<g clip-path="url(#clip0_190_1573)">
<path d="M9.80353 24.0718C9.71271 24.0718 9.62113 24.0556 9.53181 24.0212C9.19783 23.8915 9.00223 23.5437 9.06524 23.1907L10.6231 14.4141H5.62506C5.34891 14.4141 5.09549 14.2625 4.96439 14.0193C4.83404 13.7761 4.84724 13.4809 4.99881 13.251L13.5704 0.265122C13.7682 -0.0330034 14.1475 -0.151653 14.4779 -0.0168784C14.809 0.117147 14.9994 0.465822 14.9335 0.816597L13.3866 9.04612H18.3751C18.6484 9.04612 18.9003 9.19477 19.0321 9.43432C19.164 9.67455 19.1552 9.96682 19.0087 10.1975L10.4371 23.7232C10.2964 23.9458 10.054 24.0718 9.80353 24.0718ZM7.01886 12.914H11.5181C11.74 12.914 11.9503 13.0122 12.0931 13.1821C12.2352 13.352 12.2952 13.5769 12.2564 13.7951L11.2076 19.7058L17.0121 10.5461H12.4821C12.2587 10.5461 12.047 10.4465 11.905 10.2751C11.7622 10.103 11.7035 9.87675 11.7453 9.65775L12.7714 4.19902L7.01886 12.914Z" fill="white"/>
</g>
<defs>
<clipPath id="clip0_190_1573">
<rect width="24" height="24" fill="white"/>
</clipPath>
</defs>
</svg>
