<svg width="25" height="24" viewBox="0 0 25 24" fill="none" xmlns="http://www.w3.org/2000/svg">
<g clip-path="url(#clip0_243_1673)">
<path d="M12.1178 15.7156C8.7666 15.7156 6.04016 18.442 6.04016 21.7932C6.04016 21.9871 6.04968 22.1788 6.06763 22.368C7.88385 23.432 9.95697 24 12.1178 24C14.2786 24 16.3517 23.432 18.168 22.368C18.1859 22.1786 18.1954 21.9871 18.1954 21.7932C18.1954 18.442 15.469 15.7156 12.1178 15.7156Z" fill="#fe8d21"/>
<path d="M20.6031 3.51471C18.3366 1.24823 15.3232 0 12.1178 0C8.91235 0 5.89899 1.24823 3.63251 3.51471C1.36603 5.78119 0.117798 8.79456 0.117798 12C0.117798 15.2053 1.36603 18.2188 3.63251 20.4853C3.95514 20.8081 4.29352 21.1093 4.6449 21.39C4.80219 18.4435 6.67169 15.9443 9.27399 14.8713C7.84357 13.9387 6.896 12.325 6.896 10.4938C6.896 7.61444 9.23846 5.27197 12.1178 5.27197C14.9971 5.27197 17.3396 7.61444 17.3396 10.4938C17.3396 12.325 16.392 13.9387 14.9616 14.8713C17.5639 15.9443 19.4334 18.4435 19.5907 21.39C19.9421 21.1093 20.2805 20.8079 20.6031 20.4853C22.8696 18.2188 24.1178 15.2053 24.1178 12C24.1178 8.79456 22.8696 5.78119 20.6031 3.51471Z" fill="#fe8d21"/>
<path d="M15.9333 10.4938C15.9333 8.38971 14.2217 6.67822 12.1178 6.67822C10.0139 6.67822 8.30225 8.38989 8.30225 10.4938C8.30225 12.5977 10.0139 14.3093 12.1178 14.3093C14.2217 14.3093 15.9333 12.5977 15.9333 10.4938Z" fill="#fe8d21"/>
</g>
<defs>
<clipPath id="clip0_243_1673">
<rect width="24" height="24" fill="white" transform="translate(0.117798)"/>
</clipPath>
</defs>
</svg>
