<svg width="24" height="24" viewBox="0 0 24 24" fill="none" xmlns="http://www.w3.org/2000/svg">
<path d="M22.9624 4.73905C22.29 3.6728 21.3052 2.83981 20.1422 2.35358C18.8244 1.80045 17.3444 1.70089 15.8621 2.06638C14.5037 2.40134 13.1806 3.12786 12 4.1818C10.8193 3.12777 9.49604 2.4012 8.13751 2.06628C6.65518 1.70066 5.17501 1.80031 3.85726 2.35381C2.69424 2.84019 1.70949 3.67335 1.03721 4.73975C0.333145 5.85275 -0.0250272 7.20626 0.00141031 8.65381C0.118785 15.089 9.70482 20.9408 11.6253 22.0486C11.7392 22.1143 11.8685 22.1489 12 22.1489C12.1316 22.1489 12.2608 22.1143 12.3748 22.0486C14.2954 20.9406 23.8823 15.0879 23.9987 8.65268C24.0248 7.20523 23.6665 5.85186 22.9624 4.73905ZM22.4989 8.62573C22.4614 10.7064 21.0744 13.1322 18.4882 15.6408C16.0931 17.9638 13.3688 19.7148 12 20.5295C10.6313 19.7149 7.90735 17.9642 5.51251 15.6411C2.92613 13.1327 1.5391 10.7071 1.50113 8.62643C1.45969 6.35454 2.55765 4.52665 4.43813 3.73676C5.05443 3.47935 5.71607 3.34805 6.38396 3.35061C8.10873 3.35061 9.9332 4.18555 11.4652 5.74339C11.535 5.81436 11.6182 5.87072 11.71 5.9092C11.8018 5.94768 11.9004 5.96749 11.9999 5.96749C12.0995 5.96749 12.198 5.94768 12.2898 5.9092C12.3816 5.87072 12.4649 5.81436 12.5347 5.74339C14.6631 3.57917 17.3558 2.81028 19.5612 3.73662C21.4419 4.52623 22.54 6.35384 22.4989 8.62559V8.62573Z" fill="#333333"/>
</svg>
