<svg width="478" height="536" viewBox="0 0 478 536" fill="none" xmlns="http://www.w3.org/2000/svg">
<path d="M436.16 46.8258L436.1 482.044C436.1 497.018 423.882 509.141 408.862 509.141L230.834 509.022C215.815 509.022 203.656 496.899 203.656 481.925L203.716 46.707C203.716 31.7323 215.934 19.6099 230.953 19.6099H261.231H273.389C278.038 19.6099 281.793 23.5318 281.793 28.4045V34.644C281.793 39.4573 285.548 43.3793 290.197 43.3793L357.606 43.4387C362.254 43.4387 366.009 39.5167 366.009 34.7034V28.464C366.009 23.5912 369.764 19.6693 374.413 19.6693L408.982 19.7287C424.001 19.7287 436.16 31.8511 436.16 46.8258V46.8258Z" fill="white"/>
<path d="M408.982 19.7287C409.181 19.7287 409.498 19.7287 409.935 19.7287C410.531 19.7882 411.485 19.7287 412.677 19.9664C415.061 20.2041 418.756 21.0361 422.869 23.4724C424.955 24.6609 427.101 26.3247 429.067 28.464C431.094 30.6627 432.941 33.3367 434.253 36.605C435.624 39.8139 436.339 43.5576 436.279 47.5984C436.319 51.5995 436.339 55.8582 436.339 60.3744C436.339 96.5633 436.398 148.856 436.398 213.449C436.398 278.102 436.458 355.056 436.458 440.507C436.458 451.203 436.458 462.018 436.458 472.952C436.458 475.685 436.458 478.419 436.458 481.152C436.398 483.945 436.22 486.738 435.385 489.412C434.61 492.146 433.537 494.76 431.928 497.078C430.379 499.455 428.471 501.534 426.266 503.377C421.856 506.883 416.313 509.141 410.531 509.438C404.869 509.616 399.148 509.497 393.426 509.497C381.983 509.497 370.44 509.497 358.798 509.497C335.494 509.497 311.713 509.497 287.634 509.438C275.595 509.438 263.476 509.438 251.278 509.438C245.159 509.438 239.04 509.438 232.921 509.438C226.722 509.735 220.345 508.13 215.159 504.565C210.034 501 206.16 495.652 204.372 489.709C203.418 486.738 203.239 483.589 203.239 480.499C203.239 477.448 203.239 474.398 203.239 471.347C203.279 459.185 203.299 447.103 203.299 435.099C203.299 411.092 203.299 387.382 203.299 364.147C203.299 317.678 203.299 272.813 203.358 230.088C203.358 187.362 203.358 146.717 203.418 108.745C203.418 89.7296 203.418 71.3678 203.418 53.719C203.418 51.5401 203.418 49.3613 203.418 47.1824C203.478 46.0533 203.537 44.9837 203.597 43.8547C203.776 42.7851 203.895 41.7154 204.133 40.6458C205.146 36.3673 207.113 32.3859 209.855 29.1176C212.656 25.9088 216.113 23.2941 219.987 21.6303C223.802 19.907 228.033 19.2533 232.086 19.3128C240.192 19.3524 248.099 19.3722 255.807 19.3722C259.662 19.3722 263.456 19.3722 267.191 19.3722C269.059 19.3722 270.926 19.3722 272.794 19.3722C274.641 19.3128 276.608 19.7882 278.158 20.8578C279.707 21.9274 280.84 23.4724 281.495 25.2551C282.151 26.9784 282.032 28.88 282.032 30.6032C282.032 31.4748 282.032 32.3463 282.032 33.2179C282.032 34.1092 281.972 35.0006 282.091 35.8325C282.33 37.4964 283.045 39.1008 284.118 40.3487C285.25 41.656 286.681 42.5474 288.29 42.9039C289.124 43.1416 289.899 43.201 290.734 43.201C291.568 43.201 292.402 43.201 293.237 43.201C296.574 43.201 299.852 43.201 303.071 43.201C315.945 43.201 327.925 43.201 338.951 43.2604C344.474 43.2604 349.758 43.2604 354.805 43.2604C356.056 43.2604 357.308 43.3199 358.5 43.201C359.692 43.0822 360.824 42.6662 361.837 42.072C363.804 40.8241 365.175 38.7443 365.652 36.605C365.89 35.476 365.831 34.4063 365.831 33.2773C365.831 32.2077 365.831 31.138 365.831 30.0684C365.89 28.9988 365.771 27.9292 366.01 26.8596C366.188 25.8494 366.546 24.8392 367.023 24.0072C367.976 22.1651 369.586 20.8578 371.374 20.1447C373.162 19.3722 375.069 19.6099 376.797 19.5505C383.771 19.6099 389.671 19.6099 394.439 19.6099C399.207 19.6693 402.843 19.6693 405.287 19.6693C406.916 19.6693 408.147 19.6891 408.982 19.7287C408.147 19.7287 406.916 19.7287 405.287 19.7287C402.843 19.7287 399.207 19.7882 394.439 19.7882C389.671 19.7882 383.771 19.7882 376.797 19.7882C375.009 19.8476 373.162 19.6099 371.433 20.3824C369.764 21.0361 368.215 22.3434 367.261 24.1261C366.784 24.958 366.427 25.9088 366.248 26.919C366.069 27.9292 366.129 28.9988 366.129 30.0684C366.129 31.138 366.129 32.2077 366.129 33.2773C366.129 34.4063 366.188 35.5354 365.95 36.6644C365.473 38.9225 364.043 41.0023 362.016 42.3097C360.943 42.9633 359.751 43.3793 358.5 43.5576C357.248 43.6764 356.056 43.5576 354.805 43.617C349.758 43.617 344.474 43.617 338.951 43.617C327.925 43.617 315.945 43.617 303.071 43.617C299.852 43.617 296.574 43.617 293.237 43.617C292.402 43.617 291.568 43.617 290.734 43.617C289.899 43.617 289.005 43.5576 288.171 43.3793C286.502 42.9633 284.952 42.0125 283.82 40.6458C282.628 39.3385 281.853 37.6746 281.615 35.8919C281.495 35.0006 281.555 34.1092 281.555 33.2179C281.555 32.3463 281.555 31.4748 281.555 30.6032C281.555 28.8205 281.674 27.0378 281.019 25.374C280.423 23.7695 279.29 22.2839 277.86 21.2737C276.37 20.2635 274.641 19.7882 272.794 19.8476C270.926 19.8476 269.059 19.8476 267.191 19.8476C263.456 19.8476 259.662 19.8476 255.807 19.8476C248.099 19.8476 240.192 19.8476 232.086 19.8476C228.033 19.8476 223.921 20.4418 220.166 22.1057C216.411 23.7695 213.014 26.3247 210.332 29.4742C207.59 32.6831 205.683 36.605 204.729 40.7647C204.431 41.7749 204.372 42.8445 204.193 43.9141C204.133 44.9837 204.014 46.0533 204.014 47.1824C204.014 49.3613 204.014 51.5401 204.014 53.719C204.014 71.3678 204.014 89.7296 204.014 108.745C204.014 146.717 204.074 187.362 204.074 230.088C204.074 272.813 204.074 317.678 204.074 364.147C204.074 387.382 204.014 411.092 204.014 435.099C204.014 447.103 204.014 459.185 204.014 471.347C204.014 474.398 204.014 477.448 204.014 480.499C204.014 483.589 204.193 486.56 205.146 489.472C206.875 495.236 210.57 500.465 215.636 503.911C220.643 507.417 226.782 508.962 232.921 508.665C239.04 508.665 245.159 508.665 251.278 508.665C263.476 508.665 275.595 508.685 287.634 508.725C311.793 508.725 335.514 508.725 358.798 508.725C370.44 508.764 381.983 508.784 393.426 508.784C399.148 508.725 404.869 508.844 410.531 508.725C416.074 508.428 421.498 506.229 425.789 502.782C427.935 501 429.783 498.979 431.332 496.662C432.882 494.404 433.955 491.848 434.73 489.234C435.504 486.619 435.683 483.886 435.743 481.152C435.743 478.419 435.743 475.685 435.743 472.952C435.743 462.018 435.743 451.203 435.743 440.507C435.802 355.056 435.802 278.102 435.862 213.449C435.922 148.856 435.981 96.5633 436.041 60.3744C436.041 55.8582 436.041 51.5995 436.041 47.5984C436.1 43.617 435.385 39.8733 434.074 36.6644C432.763 33.4556 430.915 30.7815 428.948 28.5828C426.981 26.4436 424.836 24.7797 422.809 23.5913C418.697 21.1549 415.061 20.323 412.677 20.0259C411.426 19.7882 410.531 19.8476 409.935 19.7882C409.498 19.7485 409.181 19.7287 408.982 19.7287V19.7287Z" fill="#263238"/>
<path d="M227.208 61.6941C227.035 61.6941 226.86 61.6505 226.686 61.5634L223.94 58.687C223.853 58.5999 223.81 58.4255 223.81 58.1641C223.81 57.9898 223.896 57.8591 224.071 57.7719L226.686 55.1571C226.947 54.8956 227.47 54.8956 227.732 55.1571C227.993 55.4186 227.993 55.9415 227.732 56.203L225.51 58.1641L227.732 60.5174C227.993 60.7789 227.993 61.1712 227.732 61.5634C227.557 61.6505 227.383 61.6941 227.208 61.6941Z" fill="#263238"/>
<path d="M393.381 426.46H247.998C235.506 426.46 225.379 436.587 225.379 449.078V453.132C225.379 465.623 235.506 475.75 247.998 475.75H393.381C405.873 475.75 415.999 465.623 415.999 453.132V449.078C415.999 436.587 405.873 426.46 393.381 426.46Z" fill="#FF725E"/>
<path fill-rule="evenodd" clip-rule="evenodd" d="M297.939 445.288H302.384C305.914 445.288 308.268 447.51 308.268 450.778C308.268 454.047 305.914 456.269 302.384 456.269H297.939V445.288ZM302.384 455.092C305.261 455.092 307.091 453.262 307.091 450.647C307.091 448.033 305.261 446.203 302.384 446.203H299.116V455.092H302.384Z" fill="#FAFAFA"/>
<path fill-rule="evenodd" clip-rule="evenodd" d="M309.837 450.778C309.837 447.64 312.321 445.288 315.589 445.288C318.858 445.288 321.212 447.51 321.212 450.778C321.212 453.916 318.858 456.269 315.589 456.269C312.321 456.269 309.837 453.916 309.837 450.778ZM320.166 450.778C320.166 448.163 318.205 446.333 315.589 446.333C312.975 446.333 311.014 448.163 311.014 450.778C311.014 453.394 312.975 455.224 315.589 455.224C318.205 455.224 320.166 453.394 320.166 450.778Z" fill="#FAFAFA"/>
<path d="M332.979 445.288V456.269H331.933L325.004 447.379V456.269H323.827V445.288H324.742L331.802 454.177V445.288H332.979Z" fill="#FAFAFA"/>
<path d="M344.221 455.224V456.269H336.508V445.288H343.959V446.333H337.685V450.255H343.306V451.17H337.685V455.224H344.221Z" fill="#FAFAFA"/>
<path fill-rule="evenodd" clip-rule="evenodd" d="M248.127 278.332C248.127 280.293 246.82 281.6 244.335 281.6H241.852V284.476H240.937V275.194H244.335C246.82 275.194 248.127 276.37 248.127 278.332ZM247.212 278.332C247.212 276.893 246.167 275.978 244.335 275.978H241.852V280.685H244.335C246.167 280.685 247.212 279.9 247.212 278.332Z" fill="#263238"/>
<path d="M256.625 277.546V284.476H255.71V283.169C255.186 284.084 254.271 284.607 253.094 284.607C251.396 284.607 250.219 283.56 250.219 281.6V277.546H251.134V281.469C251.134 282.907 251.918 283.692 253.226 283.692C254.664 283.692 255.579 282.777 255.579 281.208V277.546H256.625Z" fill="#263238"/>
<path d="M262.77 277.417V278.332C262.684 278.332 262.597 278.332 262.51 278.332C261.071 278.332 260.156 279.247 260.156 280.946V284.476H259.241V277.547H260.156V278.854C260.548 277.939 261.463 277.417 262.77 277.417Z" fill="#263238"/>
<path d="M263.687 280.946C263.687 278.854 265.255 277.417 267.347 277.417C268.524 277.417 269.439 277.939 270.092 278.854L269.308 279.247C268.785 278.549 268.132 278.2 267.347 278.2C265.778 278.2 264.602 279.377 264.602 280.946C264.602 282.646 265.778 283.691 267.347 283.691C268.132 283.691 268.785 283.431 269.308 282.776L270.092 283.169C269.439 284.084 268.524 284.606 267.347 284.606C265.255 284.606 263.687 283.038 263.687 280.946Z" fill="#263238"/>
<path d="M278.197 280.423V284.476H277.282V280.554C277.282 278.985 276.497 278.331 275.19 278.331C273.621 278.331 272.706 279.247 272.706 280.815V284.476H271.791V274.671H272.706V278.723C273.228 277.94 274.143 277.416 275.32 277.416C277.02 277.416 278.197 278.331 278.197 280.423Z" fill="#263238"/>
<path fill-rule="evenodd" clip-rule="evenodd" d="M286.041 280.162V284.476H285.126V283.431C284.734 284.084 283.949 284.606 282.772 284.606C281.204 284.606 280.157 283.691 280.157 282.515C280.157 281.469 280.942 280.554 282.903 280.554H285.126V280.162C285.126 278.985 284.472 278.2 283.164 278.2C282.249 278.2 281.334 278.593 280.812 279.115L280.419 278.332C281.072 277.808 282.119 277.417 283.296 277.417C285.126 277.417 286.041 278.332 286.041 280.162ZM285.126 282.384V281.207H282.903C281.596 281.207 281.204 281.731 281.204 282.515C281.204 283.299 281.857 283.822 282.903 283.822C283.949 283.822 284.734 283.299 285.126 282.384Z" fill="#263238"/>
<path d="M287.742 283.691L288.134 282.907C288.657 283.431 289.703 283.691 290.618 283.691C291.926 283.691 292.579 283.299 292.579 282.646C292.579 280.815 288.004 282.122 288.004 279.508C288.004 278.332 288.919 277.417 290.749 277.417C291.664 277.417 292.579 277.677 293.233 278.07L292.841 278.854C292.188 278.332 291.533 278.2 290.749 278.2C289.441 278.2 288.919 278.723 288.919 279.508C288.919 281.339 293.495 279.9 293.495 282.646C293.495 283.822 292.448 284.606 290.618 284.606C289.441 284.606 288.264 284.214 287.742 283.691Z" fill="#263238"/>
<path fill-rule="evenodd" clip-rule="evenodd" d="M301.338 281.207H295.454C295.586 282.776 296.631 283.691 298.2 283.691C298.985 283.691 299.769 283.431 300.291 282.776L300.815 283.431C300.292 284.084 299.246 284.606 298.2 284.606C295.977 284.606 294.539 283.038 294.539 280.946C294.539 278.985 295.977 277.417 297.938 277.417C299.9 277.417 301.338 278.854 301.338 280.946C301.338 281.034 301.338 281.12 301.338 281.207ZM295.454 280.554H300.423C300.291 279.247 299.246 278.2 297.938 278.2C296.501 278.2 295.586 279.247 295.454 280.554Z" fill="#263238"/>
<path d="M317.027 277.546L314.413 284.476H313.498L311.275 278.723L309.053 284.476H308.138L305.522 277.546H306.438L308.66 283.43L310.883 277.546H311.667L313.89 283.43L316.112 277.546H317.027Z" fill="#263238"/>
<path fill-rule="evenodd" clip-rule="evenodd" d="M323.564 280.162V284.476H322.649V283.431C322.126 284.084 321.341 284.606 320.166 284.606C318.596 284.606 317.681 283.691 317.681 282.515C317.681 281.469 318.334 280.554 320.296 280.554H322.649V280.162C322.649 278.985 321.864 278.2 320.557 278.2C319.773 278.2 318.857 278.593 318.204 279.115L317.812 278.332C318.596 277.808 319.642 277.417 320.688 277.417C322.518 277.417 323.564 278.332 323.564 280.162ZM322.649 282.384V281.207H320.296C318.989 281.207 318.596 281.731 318.596 282.515C318.596 283.299 319.25 283.822 320.296 283.822C321.341 283.822 322.126 283.299 322.649 282.384Z" fill="#263238"/>
<path d="M325.133 283.691L325.525 282.907C326.048 283.431 327.093 283.691 328.008 283.691C329.447 283.691 329.97 283.299 329.97 282.646C329.97 280.815 325.394 282.122 325.394 279.508C325.394 278.332 326.44 277.417 328.14 277.417C329.055 277.417 329.97 277.677 330.624 278.07L330.232 278.854C329.578 278.332 328.924 278.2 328.14 278.2C326.833 278.2 326.31 278.723 326.31 279.508C326.31 281.339 330.885 279.9 330.885 282.646C330.885 283.822 329.84 284.606 328.008 284.606C326.833 284.606 325.656 284.214 325.133 283.691Z" fill="#263238"/>
<path d="M335.199 283.691L335.592 282.907C336.114 283.431 337.161 283.691 338.076 283.691C339.383 283.691 339.906 283.299 339.906 282.646C339.906 280.815 335.461 282.122 335.461 279.508C335.461 278.332 336.376 277.417 338.206 277.417C339.121 277.417 340.037 277.677 340.56 278.07L340.298 278.854C339.645 278.332 338.861 278.2 338.206 278.2C336.899 278.2 336.376 278.723 336.376 279.508C336.376 281.339 340.952 279.9 340.952 282.646C340.952 283.822 339.776 284.606 338.076 284.606C336.769 284.606 335.722 284.214 335.199 283.691Z" fill="#263238"/>
<path d="M348.929 277.546V284.476H348.014V283.169C347.491 284.084 346.576 284.607 345.53 284.607C343.7 284.607 342.523 283.56 342.523 281.6V277.546H343.439V281.469C343.439 282.907 344.222 283.692 345.53 283.692C347.099 283.692 348.014 282.777 348.014 281.208V277.546H348.929Z" fill="#263238"/>
<path d="M350.89 280.946C350.89 278.854 352.328 277.417 354.42 277.417C355.728 277.417 356.643 277.939 357.165 278.854L356.512 279.247C355.989 278.549 355.292 278.2 354.42 278.2C352.982 278.2 351.806 279.377 351.806 280.946C351.806 282.646 352.982 283.691 354.42 283.691C355.335 283.691 355.989 283.431 356.512 282.776L357.165 283.169C356.643 284.084 355.728 284.606 354.42 284.606C352.328 284.606 350.89 283.038 350.89 280.946Z" fill="#263238"/>
<path d="M358.211 280.946C358.211 278.854 359.78 277.417 361.871 277.417C363.048 277.417 364.094 277.939 364.617 278.854L363.963 279.247C363.44 278.593 362.655 278.2 361.871 278.2C360.303 278.2 359.256 279.377 359.256 280.946C359.256 282.646 360.303 283.691 361.871 283.691C362.655 283.691 363.44 283.431 363.963 282.776L364.617 283.169C364.094 284.084 363.048 284.606 361.871 284.606C359.78 284.606 358.211 283.038 358.211 280.946Z" fill="#263238"/>
<path fill-rule="evenodd" clip-rule="evenodd" d="M372.461 281.207H366.578C366.708 282.776 367.755 283.691 369.324 283.691C370.239 283.691 370.892 283.431 371.546 282.776L372.069 283.431C371.416 284.084 370.5 284.606 369.324 284.606C367.101 284.606 365.663 283.038 365.663 280.946C365.663 278.985 367.101 277.417 369.062 277.417C371.024 277.417 372.461 278.854 372.461 280.946C372.461 281.034 372.461 281.12 372.461 281.207ZM366.578 280.554H371.546C371.416 279.247 370.5 278.2 369.062 278.2C367.755 278.2 366.708 279.247 366.578 280.554Z" fill="#263238"/>
<path d="M373.376 283.691L373.899 282.907C374.423 283.431 375.338 283.691 376.383 283.691C377.691 283.691 378.214 283.299 378.214 282.646C378.214 280.815 373.638 282.122 373.638 279.508C373.638 278.332 374.684 277.417 376.514 277.417C377.43 277.417 378.345 277.677 378.998 278.07L378.475 278.854C377.821 278.332 377.168 278.2 376.514 278.2C375.207 278.2 374.684 278.723 374.684 279.508C374.684 281.339 379.13 279.9 379.13 282.646C379.13 283.822 378.083 284.606 376.253 284.606C375.207 284.606 374.031 284.214 373.376 283.691Z" fill="#263238"/>
<path d="M379.914 283.691L380.437 282.907C380.961 283.431 381.876 283.691 382.921 283.691C384.229 283.691 384.751 283.299 384.751 282.646C384.751 280.815 380.176 282.122 380.176 279.508C380.176 278.332 381.222 277.417 383.052 277.417C383.968 277.417 384.883 277.677 385.405 278.07L385.013 278.854C384.359 278.332 383.706 278.2 383.052 278.2C381.744 278.2 381.222 278.723 381.222 279.508C381.222 281.339 385.666 279.9 385.666 282.646C385.666 283.822 384.621 284.606 382.791 284.606C381.614 284.606 380.568 284.214 379.914 283.691Z" fill="#263238"/>
<path d="M388.545 276.631V277.546H390.767V278.331H388.545V284.476H387.629V278.331H386.321V277.546H387.629V276.631C387.629 275.324 388.283 274.539 389.721 274.539C390.243 274.539 390.767 274.671 391.159 274.932L390.767 275.716C390.505 275.454 390.113 275.324 389.721 275.324C388.936 275.324 388.545 275.759 388.545 276.631Z" fill="#263238"/>
<path d="M398.218 277.546V284.476H397.433V283.169C396.911 284.084 395.996 284.607 394.819 284.607C393.119 284.607 391.942 283.56 391.942 281.6V277.546H392.858V281.469C392.858 282.907 393.642 283.692 394.949 283.692C396.388 283.692 397.303 282.777 397.303 281.208V277.546H398.218Z" fill="#263238"/>
<path d="M400.964 274.671H401.879V284.476H400.964V274.671Z" fill="#263238"/>
<path d="M253.879 240.286H247.996V237.41H263.162V240.286H257.279V255.322H253.879V240.286Z" fill="#FF725E"/>
<path d="M278.722 247.607V255.32H275.583V247.999C275.583 245.515 274.407 244.339 272.316 244.339C270.093 244.339 268.524 245.777 268.524 248.522V255.32H265.387V236.363H268.524V243.292C269.569 242.116 271.139 241.593 273.1 241.593C276.368 241.593 278.722 243.423 278.722 247.607Z" fill="#FF725E"/>
<path fill-rule="evenodd" clip-rule="evenodd" d="M294.278 247.346V255.321H291.141V253.621C290.488 254.798 288.919 255.582 286.957 255.582C283.82 255.582 281.858 253.752 281.858 251.398C281.858 249.176 283.297 247.476 287.481 247.476H291.01V247.215C291.01 245.254 289.834 244.208 287.611 244.208C286.042 244.208 284.604 244.731 283.558 245.646L282.25 243.293C283.689 242.117 285.781 241.593 288.003 241.593C291.926 241.593 294.278 243.424 294.278 247.346ZM291.01 251.006V249.568H287.742C285.519 249.568 284.997 250.353 284.997 251.398C284.997 252.445 285.912 253.23 287.611 253.23C289.049 253.23 290.488 252.445 291.01 251.006Z" fill="#FF725E"/>
<path d="M311.797 247.607V255.321H308.53V247.999C308.53 245.515 307.353 244.339 305.261 244.339C303.038 244.339 301.469 245.777 301.469 248.522V255.321H298.332V241.723H301.339V243.554C302.384 242.247 304.084 241.593 306.045 241.593C309.314 241.593 311.797 243.424 311.797 247.607Z" fill="#FF725E"/>
<path d="M321.344 249.568L318.99 251.791V255.32H315.722V236.363H318.99V247.869L325.527 241.723H329.45L323.696 247.476L329.842 255.32H326.05L321.344 249.568Z" fill="#FF725E"/>
<path d="M351.805 241.724L345.398 256.497C344.221 259.504 342.39 260.419 340.168 260.419C338.73 260.419 337.423 260.028 336.508 259.243L337.815 256.89C338.338 257.412 339.253 257.805 340.168 257.805C341.214 257.805 341.999 257.282 342.522 255.844L342.784 255.452L336.769 241.724H340.168L344.352 251.791L348.798 241.724H351.805Z" fill="#FF725E"/>
<path fill-rule="evenodd" clip-rule="evenodd" d="M352.198 248.522C352.198 244.469 355.336 241.593 359.519 241.593C363.703 241.593 366.71 244.469 366.71 248.522C366.71 252.575 363.703 255.582 359.519 255.582C355.336 255.582 352.198 252.575 352.198 248.522ZM363.573 248.522C363.573 245.907 361.873 244.208 359.519 244.208C357.166 244.208 355.467 245.907 355.467 248.522C355.467 251.138 357.166 252.837 359.519 252.837C361.873 252.837 363.573 251.138 363.573 248.522Z" fill="#FF725E"/>
<path d="M382.79 241.985V255.582H379.783V253.752C378.737 255.059 377.169 255.713 375.338 255.713C371.808 255.713 369.586 253.752 369.586 249.699V241.985H372.723V249.306C372.723 251.79 373.9 252.967 375.992 252.967C378.084 252.967 379.652 251.53 379.652 248.783V241.985H382.79Z" fill="#FF725E"/>
<path d="M386.713 253.49C386.713 252.445 387.497 251.53 388.673 251.53C389.85 251.53 390.765 252.445 390.765 253.49C390.765 254.667 389.85 255.582 388.673 255.582C387.497 255.582 386.713 254.667 386.713 253.49ZM386.843 237.41H390.635L389.982 249.438H387.366L386.843 237.41Z" fill="#FF725E"/>
<path d="M321.866 210.738C342.156 210.738 358.604 194.29 358.604 174C358.604 153.71 342.156 137.262 321.866 137.262C301.577 137.262 285.128 153.71 285.128 174C285.128 194.29 301.577 210.738 321.866 210.738Z" fill="#FF725E"/>
<path d="M340.038 158.573C340.43 158.965 333.631 168.117 324.741 179.23C322.78 181.452 320.949 183.675 319.251 185.767L318.596 186.551L317.812 185.767C310.752 178.576 306.046 173.216 306.307 172.955C306.699 172.693 312.06 177.399 319.251 184.328L317.681 184.46C319.251 182.368 321.081 180.145 322.911 177.792C331.932 166.809 339.515 158.181 340.038 158.573Z" fill="white"/>
<path d="M372.723 161.318C371.503 159.14 369.934 158.181 368.016 158.443L367.886 155.828C371.285 155.566 373.333 156.699 374.03 159.226L372.723 161.318Z" fill="#E8505B"/>
<path d="M266.431 169.425C265.298 167.158 263.729 166.199 261.724 166.548L261.594 163.934C264.993 163.672 267.041 164.804 267.738 167.333L266.431 169.425Z" fill="#E0E0E0"/>
<path d="M324.61 110.722C328.533 111.07 331.06 109.85 332.193 107.061L335.723 109.022C333.283 113.554 330.145 115.254 326.31 114.121L324.61 110.722Z" fill="#E0E0E0"/>
<path d="M295.326 122.357C293.669 122.88 292.841 123.795 292.841 125.102L291.011 124.972C291.272 122.707 292.275 121.485 294.018 121.312L295.326 122.357Z" fill="#E8505B"/>
<path d="M404.232 146.937C404.057 145.281 403.317 144.278 402.009 143.93L402.662 142.229C404.842 143.014 405.801 144.321 405.539 146.152L404.232 146.937Z" fill="#E0E0E0"/>
<path d="M308.398 86.7956C308.311 85.0533 307.614 84.0068 306.306 83.6583L307.091 81.9583C309.182 82.7432 310.098 84.0502 309.836 85.8804L308.398 86.7956Z" fill="#E8505B"/>
<path d="M245.253 127.457C245.602 130.071 246.865 131.51 249.044 131.771L248.129 134.517C244.381 133.82 242.681 132.076 243.03 129.288L245.253 127.457Z" fill="#E8505B"/>
<path d="M366.318 112.682C368.062 112.421 369.064 111.637 369.325 110.33L371.025 110.852C370.415 113.032 369.194 114.034 367.364 113.859L366.318 112.682Z" fill="#E8505B"/>
<path d="M382.267 124.973C382.267 125.104 381.221 125.234 380.045 125.234C378.737 125.234 377.691 125.104 377.691 124.973C377.691 124.973 378.737 124.842 380.045 124.842C381.221 124.842 382.267 124.973 382.267 124.973Z" fill="#E0E0E0"/>
<path d="M384.359 121.18C384.359 120.004 384.49 118.958 384.621 118.958C384.751 118.958 384.883 120.004 384.883 121.18C384.883 122.489 384.751 123.404 384.621 123.404C384.49 123.404 384.359 122.489 384.359 121.18Z" fill="#E0E0E0"/>
<path d="M387.104 124.842C387.104 124.842 388.151 124.71 389.328 124.71C390.635 124.71 391.68 124.842 391.68 124.842C391.68 124.972 390.635 125.103 389.328 125.103C388.151 125.103 387.104 124.972 387.104 124.842Z" fill="#E0E0E0"/>
<path d="M384.49 128.764C384.49 127.457 384.622 126.411 384.752 126.411C384.882 126.411 385.013 127.457 385.013 128.764C385.013 129.941 384.882 130.986 384.752 130.986C384.622 130.986 384.49 129.941 384.49 128.764Z" fill="#E0E0E0"/>
<path d="M388.411 128.372C388.281 128.372 387.889 128.111 387.366 127.457C386.974 127.064 386.712 126.542 386.842 126.411C386.974 126.411 387.366 126.802 387.758 127.196C388.151 127.849 388.411 128.241 388.411 128.372Z" fill="#E0E0E0"/>
<path d="M388.151 121.442C388.281 121.573 388.02 121.965 387.497 122.357C387.105 122.88 386.713 123.142 386.451 123.142C386.451 123.011 386.713 122.619 387.236 122.096C387.758 121.573 388.151 121.312 388.151 121.442Z" fill="#E0E0E0"/>
<path d="M383.051 123.142C383.051 123.274 382.529 123.142 382.136 122.62C381.614 122.358 381.352 121.965 381.482 121.965C381.482 121.835 382.006 122.097 382.397 122.358C382.921 122.75 383.182 123.142 383.051 123.142Z" fill="#E0E0E0"/>
<path d="M382.921 126.279C382.921 126.279 382.659 126.803 382.267 127.195C381.875 127.718 381.482 127.979 381.352 127.849C381.221 127.849 381.482 127.326 382.005 126.934C382.397 126.411 382.79 126.149 382.921 126.279Z" fill="#E0E0E0"/>
<path d="M260.155 112.552C260.155 112.682 259.24 112.682 257.933 112.682C256.626 112.682 255.71 112.682 255.71 112.552C255.71 112.421 256.626 112.291 257.933 112.291C259.24 112.291 260.155 112.421 260.155 112.552Z" fill="#E8505B"/>
<path d="M262.378 108.76C262.378 107.453 262.378 106.538 262.508 106.538C262.638 106.538 262.77 107.453 262.77 108.76C262.77 109.937 262.638 110.984 262.508 110.984C262.378 110.984 262.378 109.937 262.378 108.76Z" fill="#E8505B"/>
<path d="M265.123 112.421C265.123 112.291 266.038 112.16 267.346 112.16C268.523 112.16 269.568 112.291 269.568 112.421C269.568 112.552 268.523 112.552 267.346 112.552C266.038 112.552 265.123 112.552 265.123 112.421Z" fill="#E8505B"/>
<path d="M262.509 116.213C262.509 115.036 262.509 113.991 262.639 113.991C262.77 113.991 262.901 115.036 262.901 116.213C262.901 117.52 262.77 118.435 262.639 118.435C262.509 118.435 262.509 117.52 262.509 116.213Z" fill="#E8505B"/>
<path d="M266.301 115.821C266.171 115.951 265.778 115.559 265.386 115.036C264.863 114.513 264.602 114.121 264.732 113.859C264.732 113.859 265.256 114.252 265.648 114.775C266.171 115.298 266.432 115.821 266.301 115.821Z" fill="#E8505B"/>
<path d="M266.169 108.892C266.169 109.022 265.907 109.545 265.384 109.937C264.992 110.46 264.469 110.722 264.469 110.592C264.338 110.592 264.6 110.068 265.123 109.677C265.515 109.153 266.038 108.892 266.169 108.892Z" fill="#E8505B"/>
<path d="M260.94 110.722C260.808 110.722 260.416 110.59 260.025 110.198C259.632 109.807 259.371 109.545 259.371 109.415C259.501 109.283 259.893 109.545 260.286 109.807C260.678 110.33 261.07 110.591 260.94 110.722Z" fill="#E8505B"/>
<path d="M260.81 113.729C260.81 113.859 260.548 114.252 260.156 114.774C259.764 115.167 259.371 115.429 259.241 115.429C259.241 115.298 259.503 114.906 259.895 114.382C260.287 113.991 260.68 113.598 260.81 113.729Z" fill="#E8505B"/>
<path d="M405.41 54.634C410.897 54.634 415.346 54.4584 415.346 54.2418C415.346 54.0251 410.897 53.8496 405.41 53.8496C399.921 53.8496 395.474 54.0251 395.474 54.2418C395.474 54.4584 399.921 54.634 405.41 54.634Z" fill="#263238"/>
<path d="M405.41 58.6873C410.897 58.6873 415.346 58.5116 415.346 58.295C415.346 58.0783 410.897 57.9028 405.41 57.9028C399.921 57.9028 395.474 58.0783 395.474 58.295C395.474 58.5116 399.921 58.6873 405.41 58.6873Z" fill="#263238"/>
<path d="M405.41 62.8709C410.897 62.8709 415.346 62.6952 415.346 62.4786C415.346 62.2621 410.897 62.0864 405.41 62.0864C399.921 62.0864 395.474 62.2621 395.474 62.4786C395.474 62.6952 399.921 62.8709 405.41 62.8709Z" fill="#263238"/>
<path d="M299.9 343.048L346.051 343.44L345.529 401.62L299.377 401.359L299.9 343.048Z" fill="#EBEBEB"/>
<path d="M328.01 345.14L327.095 401.489H319.904L321.343 345.008L328.01 345.14Z" fill="#FAFAFA"/>
<path d="M273.36 344.748L299.77 344.878L346.051 345.271L299.77 351.284L299.377 401.359L272.967 401.097L273.36 344.748Z" fill="#E0E0E0"/>
<path d="M287.742 344.878L286.696 401.227H278.852L280.159 344.748L287.742 344.878Z" fill="#FAFAFA"/>
<path d="M308.66 327.621C308.66 328.013 308.007 328.405 306.568 328.666C305.13 329.058 303.038 329.451 300.424 329.581C299.116 329.581 297.679 329.581 296.109 329.451C295.325 329.451 294.497 329.363 293.625 329.19C292.84 329.058 291.925 328.928 290.88 328.666C290.488 328.405 289.833 328.274 289.311 327.883C288.658 327.621 288.003 326.967 287.611 326.313C286.958 325.529 286.826 324.482 286.826 323.699C286.826 322.914 286.826 322.26 286.958 321.737C287.481 319.907 287.873 317.946 288.788 315.854C289.18 314.939 289.833 313.893 290.488 312.978C290.748 312.454 291.141 312.062 291.665 311.671C292.013 311.147 292.492 310.712 293.102 310.362C293.755 309.971 294.41 309.709 295.194 309.447C295.979 309.317 296.894 309.317 297.679 309.579C299.116 309.971 300.031 310.755 300.816 311.278C303.561 313.762 305.523 316.376 306.83 318.73C308.137 321.214 308.66 323.306 308.922 324.876C309.052 326.313 308.922 327.228 308.53 327.228C307.875 327.49 306.7 324.482 303.693 320.692C302.254 318.861 300.293 316.9 297.809 315.069C297.286 314.678 296.762 314.416 296.502 314.285C296.371 314.285 296.371 314.285 296.24 314.416C296.152 314.416 296.022 314.503 295.847 314.678C295.674 314.764 295.499 314.895 295.325 315.069C295.064 315.418 294.845 315.723 294.672 315.985C294.235 316.595 293.843 317.248 293.495 317.946C292.84 319.515 292.448 321.214 291.925 322.914C291.795 323.306 291.795 323.567 291.795 323.699H291.665C291.533 323.829 291.403 323.829 291.533 323.699H291.665C291.751 323.699 291.795 323.742 291.795 323.829C291.97 323.916 292.187 324.004 292.448 324.091C292.972 324.352 293.887 324.614 294.54 324.744C295.237 324.919 295.935 325.093 296.632 325.267C298.071 325.529 299.378 325.659 300.554 325.921C303.038 326.183 305.13 326.444 306.438 326.706C308.007 326.967 308.66 327.359 308.66 327.621Z" fill="#E0E0E0"/>
<path d="M307.875 328.143C307.614 327.359 311.144 326.313 316.504 324.614C319.119 323.829 322.257 322.914 325.655 321.475C326.44 321.083 327.094 320.692 327.617 320.298C327.747 320.168 327.879 319.907 327.879 320.037C327.747 320.037 327.747 320.168 327.747 320.037C327.747 320.037 327.617 319.775 327.487 319.383C327.225 318.86 327.007 318.381 326.832 317.945C326.31 317.073 325.83 316.203 325.395 315.331C324.872 314.633 324.305 313.979 323.695 313.369C323.433 313.108 323.041 312.977 322.78 312.716C322.518 312.454 322.257 312.28 321.995 312.192C321.341 312.062 321.08 312.062 320.558 312.062C320.165 312.192 319.643 312.586 318.988 313.108C316.242 315.2 314.151 317.684 312.582 319.907C309.575 324.352 308.66 327.751 308.006 327.621C307.614 327.621 307.353 326.704 307.483 325.006C307.614 323.305 308.136 320.822 309.445 318.076C310.882 315.331 312.844 312.324 315.851 309.447C316.636 308.794 317.681 307.878 319.119 307.355C320.558 306.963 322.257 306.963 323.695 307.487C324.392 307.747 325.045 308.053 325.655 308.402C326.179 308.75 326.659 309.185 327.094 309.709C328.14 310.494 328.924 311.539 329.709 312.586C330.363 313.631 330.886 314.677 331.409 315.723C331.583 316.246 331.801 316.725 332.063 317.161C332.324 317.684 332.586 318.338 332.716 319.383C332.846 320.168 332.716 321.475 332.324 322.39C331.67 323.306 331.016 323.829 330.494 324.221C329.447 325.006 328.402 325.529 327.356 325.789C323.695 327.228 320.165 327.881 317.289 328.274C311.405 328.928 307.875 328.666 307.875 328.143Z" fill="#EBEBEB"/>
<path d="M265.124 325.398L332.977 325.921L332.847 345.14L264.992 344.617L265.124 325.398Z" fill="#E0E0E0"/>
<path d="M290.097 325.529L351.414 326.052L351.283 345.27L289.966 344.878L290.097 325.529Z" fill="#EBEBEB"/>
<path d="M332.586 325.791L332.062 345.27L325.003 345.14L325.525 325.791H332.586Z" fill="#FAFAFA"/>
<path d="M281.728 325.529L281.075 344.747H273.23L273.622 325.398L281.728 325.529Z" fill="#FAFAFA"/>
<path d="M349.583 367.235L375.863 367.496L375.601 400.443L349.453 400.312L349.583 367.235Z" fill="#EBEBEB"/>
<path d="M365.663 368.411L365.14 400.443L360.956 400.312L361.871 368.411H365.663Z" fill="#FAFAFA"/>
<path d="M334.678 368.151L349.581 368.281L375.73 368.543L349.581 371.942L349.451 400.312L334.416 400.182L334.678 368.151Z" fill="#E0E0E0"/>
<path d="M342.915 368.281L342.262 400.182H337.816L338.47 368.151L342.915 368.281Z" fill="#FAFAFA"/>
<path d="M354.68 358.475C354.68 358.998 352.98 359.521 349.973 359.783C348.404 359.913 346.705 359.913 344.482 359.39C343.959 359.128 343.044 358.868 342.39 357.953C342.129 357.429 341.998 356.776 341.868 356.383C341.868 355.729 341.998 355.468 341.998 355.076C342.26 354.031 342.522 352.984 343.044 351.677C343.305 351.067 343.654 350.5 344.09 349.977C344.482 349.454 345.005 348.932 345.659 348.408C346.312 347.885 347.489 347.623 348.404 347.885C349.319 348.147 349.973 348.67 350.366 348.932C352.065 350.369 353.111 351.939 353.895 353.246C355.203 356.121 355.072 358.213 354.55 358.345C354.027 358.475 353.373 356.776 351.673 354.684C350.888 353.769 349.713 352.592 348.274 351.677C348.012 351.415 347.751 351.284 347.621 351.284C347.621 351.284 347.621 351.329 347.621 351.415C347.489 351.546 347.228 351.807 346.966 352.069C346.705 352.417 346.531 352.766 346.444 353.114C346.051 354.031 345.79 354.946 345.529 355.861L345.397 356.253C345.529 356.253 345.267 356.253 345.267 356.253C345.18 356.253 345.092 356.296 345.005 356.383C344.919 356.383 344.919 356.383 345.005 356.383C345.005 356.296 345.049 356.209 345.136 356.121L345.267 355.991C345.397 355.991 345.397 356.121 345.529 356.121C347.097 356.776 348.797 357.038 350.104 357.168C352.85 357.691 354.68 357.953 354.68 358.475Z" fill="#E0E0E0"/>
<path d="M354.157 358.737C354.027 358.215 355.987 357.43 358.994 356.515C360.564 355.991 362.263 355.338 364.093 354.553C364.486 354.292 364.878 354.031 365.008 353.899C365.14 353.899 365.14 353.769 365.008 353.899C365.008 354.031 364.878 354.292 365.008 354.292C364.835 353.943 364.66 353.594 364.486 353.246C364.225 352.723 363.963 352.244 363.701 351.807C363.44 351.459 363.135 351.154 362.786 350.892C362.525 350.631 362.133 350.37 362.001 350.239C361.741 350.109 361.741 350.109 361.609 350.109C361.479 350.239 361.086 350.369 360.826 350.631C359.256 351.807 358.079 353.116 357.164 354.292C355.465 356.645 354.812 358.606 354.288 358.475C353.765 358.475 353.373 356.123 354.812 352.854C355.595 351.285 356.642 349.585 358.341 347.885C358.864 347.362 359.517 346.84 360.433 346.578C361.348 346.186 362.525 346.317 363.309 346.578C363.745 346.752 364.138 346.97 364.486 347.232C364.835 347.407 365.183 347.624 365.532 347.885C366.055 348.409 366.578 349.062 366.97 349.716C367.362 350.239 367.755 350.892 368.015 351.546L368.408 352.331C368.539 352.723 368.67 353.116 368.8 353.638C368.93 354.292 368.8 355.076 368.408 355.73C368.147 356.383 367.755 356.776 367.362 356.906C366.578 357.56 365.923 357.691 365.401 357.953C363.178 358.737 361.218 358.998 359.649 359.13C356.249 359.522 354.288 359.26 354.157 358.737Z" fill="#E0E0E0"/>
<path d="M329.97 357.168L368.408 357.56V368.411L329.84 368.15L329.97 357.168Z" fill="#E0E0E0"/>
<path d="M344.091 357.299L378.868 357.56L378.737 368.543L344.091 368.281V357.299Z" fill="#EBEBEB"/>
<path d="M368.278 357.56L367.886 368.411H363.834L364.226 357.429L368.278 357.56Z" fill="#FAFAFA"/>
<path d="M339.384 357.298L338.992 368.281L334.547 368.15L334.809 357.168L339.384 357.298Z" fill="#FAFAFA"/>
<path d="M185.948 97.1752L186.06 98.5124L192.634 150.998L165.333 200.029L153.967 181.42C166.373 160.247 172.613 147.804 172.688 144.089C172.762 140.375 172.13 126.185 170.793 101.521V96.7295" fill="#FFBE9D"/>
<path d="M185.948 97.844C185.799 97.9183 181.564 98.4012 173.244 99.2927L170.792 96.7297C167.895 90.2665 166.447 86.6263 166.447 85.8091L180.822 77.563C183.273 86.2549 184.536 90.7494 184.61 91.0465C185.725 95.5039 186.17 97.7697 185.948 97.844Z" fill="#FFBE9D"/>
<path d="M181.379 78.4543C181.379 78.4543 181.416 78.5657 181.49 78.7886C182.047 80.2373 183.719 86.8119 182.939 87.2576C182.159 87.8148 179.707 87.9262 179.373 87.0348C179.15 86.5147 178.556 83.7289 177.59 78.6772C177.516 77.9343 178.11 77.3028 179.373 76.7828C180.116 76.4113 180.784 76.9685 181.379 78.4543Z" fill="#FFBE9D"/>
<path d="M176.811 77.117C176.885 77.117 176.959 77.1913 177.034 77.3399C177.479 78.8999 179.151 85.4746 178.482 85.9203C177.591 86.4775 175.251 86.4775 174.805 85.6974C174.582 85.1031 173.988 82.3173 173.022 77.3399C172.948 76.597 173.542 75.9283 174.805 75.334C175.622 75.0369 176.291 75.6312 176.811 77.117Z" fill="#FFBE9D"/>
<path d="M172.688 76.8943C172.762 76.8943 172.799 77.0057 172.799 77.2286C173.468 78.6772 174.916 85.2518 174.248 85.809C173.468 86.2548 171.128 86.3662 170.682 85.4747C170.459 84.9547 169.865 82.206 168.899 77.2286C168.825 76.4114 169.419 75.7428 170.682 75.2227C171.499 74.8513 172.168 75.4085 172.688 76.8943Z" fill="#FFBE9D"/>
<path d="M168.565 76.7829C168.639 76.7829 168.713 76.8944 168.788 77.1172C169.345 78.5659 170.793 85.1405 170.125 85.5863C169.345 86.1434 167.005 86.2549 166.559 85.3634C166.336 84.8434 165.742 82.0946 164.776 77.1172C164.702 76.3 165.296 75.6314 166.559 75.1114C167.376 74.74 168.045 75.2971 168.565 76.7829Z" fill="#FFBE9D"/>
<path d="M177.925 82.0203C177.479 80.2374 177.257 78.7887 177.368 78.7887C177.479 78.6773 177.925 80.1259 178.259 81.9089C178.705 83.6918 178.928 85.1405 178.817 85.1405C178.705 85.1405 178.259 83.8033 177.925 82.0203Z" fill="#EB996E"/>
<path d="M173.801 81.6862C173.244 79.0118 172.91 77.0059 173.021 77.0059C173.133 77.0059 173.69 79.0118 174.135 81.4633C174.693 84.1377 175.138 86.1436 174.915 86.1436C174.915 86.1436 174.358 84.1377 173.801 81.6862Z" fill="#EB996E"/>
<g opacity="0.8">
<g opacity="0.8">
<path opacity="0.8" d="M169.789 82.2431C169.232 79.7915 168.898 77.6743 169.009 77.6743C169.009 77.6743 169.678 79.6801 170.235 82.2431C170.681 84.6947 171.127 86.8119 171.015 86.8119C170.792 86.9234 170.347 84.8061 169.789 82.2431Z" fill="#EB996E"/>
</g>
</g>
<path d="M174.023 95.3924L169.788 91.9379C167.894 90.3778 166.557 88.1491 166.334 85.6976L166.111 83.8032L179.149 81.2402C179.149 84.509 177.923 86.1433 175.472 86.1433L180.04 88.4835L174.023 95.3924Z" fill="#FFBE9D"/>
<path d="M179.483 89.4863C179.483 89.4863 179.149 88.9291 178.369 88.1491C177.589 87.4805 176.14 86.7004 174.357 86.589H172.909L174.246 86.1433C175.212 85.7718 176.214 85.4004 177.255 85.0289C178.369 84.3603 179.372 83.0231 179.149 81.6859C179.149 81.463 179.037 81.3516 179.037 81.3516L179.483 81.463C175.806 82.3545 172.463 83.1345 170.011 83.5803C168.785 83.8031 167.894 83.9146 167.114 84.026C166.445 84.1374 166.111 84.1374 166.111 84.1374C166.111 84.026 167.56 83.6917 169.9 83.1345C172.351 82.6888 175.583 81.7973 179.372 80.9058H179.595L179.706 81.1287C179.706 81.2401 179.706 81.3516 179.706 81.463C179.818 82.3545 179.595 83.246 179.26 83.9146C178.815 84.5832 178.146 85.1403 177.589 85.4746H177.477C176.363 85.9204 175.36 86.2918 174.469 86.589L174.357 86.1433C176.363 86.1433 177.812 87.1462 178.592 88.0376C179.372 88.8177 179.483 89.4863 179.483 89.4863Z" fill="#EB996E"/>
<path d="M178.704 83.4687C178.815 83.3573 179.038 84.0259 179.707 84.5831C179.93 84.8059 180.598 85.1402 181.044 84.8059C181.378 84.4716 181.601 83.803 181.49 83.1344C181.378 81.6858 181.267 80.3486 181.155 79.3456C181.044 78.3427 180.821 77.7856 181.044 77.7856C181.044 77.6741 181.378 78.3427 181.601 79.2342C181.936 80.2371 182.047 81.5743 182.158 83.1344C182.27 83.9145 182.047 84.8059 181.267 85.2517C180.487 85.6974 179.707 85.2517 179.373 84.9174C178.927 84.4716 178.815 84.1373 178.704 83.803C178.63 83.5802 178.63 83.4687 178.704 83.4687Z" fill="#EB996E"/>
<path d="M134.02 126.705C137.251 126.594 140.149 128.488 142.377 130.829C144.606 133.169 146.278 135.843 148.506 138.072C150.289 139.743 152.295 141.192 153.298 143.309C154.97 146.764 153.632 151.11 155.638 154.341C156.864 156.124 158.87 157.238 159.984 158.91C161.544 161.139 161.433 164.036 161.098 166.71C160.876 168.493 160.541 170.499 159.204 171.836C158.201 172.951 156.864 173.396 155.415 173.954C145.052 177.408 133.686 177.631 123.211 174.622" fill="#263238"/>
<path d="M112.178 148.101C110.953 138.963 117.639 130.606 126.888 129.603C135.691 128.823 143.38 135.286 144.717 144.089C145.832 151.667 146.946 159.356 146.835 162.142C146.723 170.611 141.82 173.842 139.814 174.845C139.369 175.068 138.031 175.291 137.586 175.403C137.511 175.403 137.474 175.44 137.474 175.514L139.48 185.097C140.26 191.449 136.694 197.132 130.454 198.024C123.991 198.915 119.087 194.124 118.085 187.772L112.178 148.101Z" fill="#FFBE9D"/>
<path d="M143.268 148.993C143.157 149.104 142.042 148.547 140.594 148.77C139.145 148.993 138.253 149.884 138.031 149.661C138.031 149.661 138.142 149.327 138.476 148.881C138.922 148.435 139.591 148.101 140.482 147.878C141.374 147.767 142.154 148.101 142.599 148.324C143.157 148.547 143.379 148.881 143.268 148.993Z" fill="#263238"/>
<path d="M130.566 151.667C130.454 151.89 129.34 151.333 127.891 151.555C126.442 151.667 125.551 152.558 125.328 152.447C125.217 152.336 125.44 152.001 125.774 151.667C126.22 151.221 126.888 150.775 127.891 150.664C128.671 150.553 129.563 150.775 130.008 150.998C130.454 151.333 130.677 151.667 130.566 151.667Z" fill="#263238"/>
<path d="M135.579 158.465C135.468 158.353 136.359 158.13 137.808 157.684C138.142 157.573 138.476 157.462 138.476 157.239C138.476 156.904 138.365 156.57 138.142 156.124C137.622 155.307 137.102 154.453 136.582 153.561C134.576 149.884 133.016 146.764 133.127 146.652C133.239 146.541 135.022 149.55 137.139 153.227C137.659 154.193 138.142 155.084 138.588 155.902C138.811 156.347 139.145 156.682 139.033 157.35C138.922 157.573 138.699 157.796 138.476 157.907C138.253 158.056 138.068 158.13 137.919 158.13C136.47 158.353 135.579 158.465 135.579 158.465Z" fill="#263238"/>
<path d="M138.031 177.965C131.27 179.674 126.813 178.188 124.658 173.508C129.636 175.588 133.908 176.219 137.473 175.402L138.031 177.965Z" fill="#EB996E"/>
<path d="M135.468 162.03C135.579 162.142 135.69 162.365 135.579 162.588C135.468 162.699 135.356 162.81 135.245 163.033C134.687 163.479 134.242 164.036 133.573 164.371C132.905 164.705 132.124 164.705 131.567 164.148C131.233 163.813 131.233 163.033 131.456 162.476C131.79 161.919 132.347 161.473 133.016 161.362C133.907 161.139 134.799 161.362 135.468 161.919" fill="#EB996E"/>
<path d="M131.457 160.024C131.68 160.024 131.903 161.585 133.351 162.476C134.912 163.368 136.472 162.922 136.583 163.145C136.583 163.256 136.249 163.479 135.58 163.59C134.912 163.813 133.797 163.702 132.906 163.145C132.014 162.587 131.568 161.696 131.457 161.027C131.234 160.47 131.346 160.024 131.457 160.024Z" fill="#263238"/>
<path d="M129.673 146.987C129.562 147.432 128.113 147.544 126.441 147.878C124.77 148.324 123.433 149.104 123.21 148.658C123.098 148.547 123.321 148.212 123.767 147.655C124.213 147.321 125.104 146.764 125.996 146.541C127.11 146.207 128.001 146.318 128.559 146.429C129.227 146.652 129.673 146.875 129.673 146.987Z" fill="#263238"/>
<path d="M141.819 144.535C141.596 144.981 140.593 144.758 139.479 144.869C138.253 144.981 137.25 145.427 137.027 145.092C136.805 144.981 137.027 144.535 137.362 144.201C137.807 143.867 138.365 143.532 139.256 143.421C140.036 143.309 140.816 143.532 141.262 143.755C141.708 144.089 141.931 144.424 141.819 144.535Z" fill="#263238"/>
<path d="M146.388 142.083C144.605 144.869 139.145 143.198 135.802 141.303C132.236 143.643 127.333 142.641 124.881 139.075C122.987 141.526 119.087 140.746 117.638 137.96C116.301 135.174 117.081 131.497 118.975 129.046C120.981 126.705 123.879 125.368 126.664 124.922C133.239 123.697 140.594 126.26 144.494 132.277C146.388 135.063 147.503 138.74 146.388 142.083Z" fill="#263238"/>
<path d="M121.872 142.864C121.649 145.315 117.972 148.77 117.972 151.221C117.861 155.902 121.427 156.124 122.318 160.582C123.098 164.036 120.535 165.931 119.978 169.385C119.866 170.611 121.761 173.508 120.869 174.288C119.867 175.068 118.641 175.625 117.415 175.848C114.22 176.666 109.54 177.186 103.374 177.408C101.22 172.951 99.8828 169.905 99.3623 168.271C98.3594 165.485 98.3594 160.916 99.8078 158.242C101.034 155.679 104.154 153.227 105.157 150.776C106.494 147.098 105.491 146.095 106.606 138.406C107.274 133.949 113.292 127.709 119.532 128.934C123.655 131.943 122.318 140.412 121.872 142.864Z" fill="#263238"/>
<path d="M108.501 177.409C108.278 177.186 107.944 176.851 107.498 176.406C106.718 175.403 105.604 173.954 104.49 171.948C103.598 169.942 102.707 167.268 103.041 164.259C103.264 161.362 104.601 158.019 107.275 155.79C108.613 154.676 110.173 153.896 111.398 152.893C112.624 151.89 113.404 150.664 113.85 149.216C114.296 147.878 114.407 146.541 114.63 145.204C114.853 143.978 115.076 142.641 115.41 141.638C116.079 139.409 117.639 138.184 118.865 137.738C119.422 137.515 119.979 137.404 120.313 137.515C120.648 137.515 120.87 137.515 120.87 137.515C120.87 137.626 120.09 137.404 118.976 137.849C117.862 138.406 116.413 139.632 115.744 141.749C115.41 142.752 115.187 143.978 115.076 145.204C114.853 146.541 114.741 147.99 114.296 149.438C113.85 150.887 112.959 152.336 111.733 153.339C110.507 154.342 108.947 155.122 107.61 156.125C105.047 158.242 103.821 161.473 103.487 164.259C103.264 167.268 104.044 169.831 104.935 171.725C105.827 173.843 106.83 175.18 107.61 176.183C108.501 177.186 108.947 177.631 108.947 177.631C108.947 177.631 108.798 177.557 108.501 177.409Z" fill="#455A64"/>
<path d="M155.081 172.171C155.415 171.279 155.75 169.831 155.638 168.048C155.638 166.265 155.192 164.147 153.855 162.142C153.298 161.139 152.407 160.247 151.515 159.244C150.735 158.241 149.844 157.016 149.621 155.678C149.175 154.23 149.398 152.892 149.509 151.555C149.621 150.218 149.732 149.104 149.732 147.878C149.621 145.538 149.064 143.421 148.172 141.86C147.281 140.3 146.278 139.297 145.498 138.629C144.718 138.072 144.16 137.737 144.16 137.737C144.16 137.737 144.309 137.775 144.606 137.849C144.829 137.997 145.163 138.22 145.609 138.517C146.389 139.075 147.503 140.078 148.506 141.749C149.509 143.309 150.066 145.426 150.289 147.878C150.401 150.218 149.509 153.004 150.066 155.567C150.401 156.793 151.181 157.907 151.961 158.91C152.852 159.913 153.744 160.804 154.301 161.807C155.638 163.924 156.084 166.153 156.084 168.048C156.084 169.831 155.638 171.279 155.304 172.282C155.081 172.728 154.895 173.062 154.747 173.285C154.598 173.508 154.524 173.619 154.524 173.619C154.524 173.619 154.747 173.062 155.081 172.171Z" fill="#455A64"/>
<path d="M129.005 125.702C129.785 125.591 130.788 125.48 132.125 125.702C134.577 126.037 138.143 127.263 140.817 130.271C143.38 133.28 144.495 136.734 144.829 139.297C144.94 140.523 144.94 141.526 144.829 142.306C144.717 142.975 144.606 143.309 144.606 143.309C144.495 143.309 144.829 141.749 144.383 139.297C143.937 136.846 142.934 133.503 140.371 130.606C137.808 127.708 134.465 126.483 132.014 126.037C129.562 125.702 128.002 125.925 128.002 125.814C128.002 125.814 128.337 125.702 129.005 125.702Z" fill="#455A64"/>
<path d="M136.47 134.84C135.913 132.723 134.353 130.049 131.567 128.266C128.781 126.706 125.55 126.706 123.433 127.151C121.427 127.597 120.201 128.489 120.201 128.377C120.201 128.377 120.535 128.154 120.981 127.82C121.538 127.486 122.318 127.04 123.433 126.817C125.55 126.149 128.893 126.037 131.79 127.82C134.799 129.603 136.359 132.612 136.805 134.618C137.139 135.843 137.139 136.735 137.139 137.292C137.139 137.849 137.028 138.295 137.028 138.295C136.805 138.295 137.028 136.846 136.47 134.84Z" fill="#455A64"/>
<path d="M97.3571 234.463C93.9026 230.339 92.1197 223.431 91.1167 217.747C89.6681 208.275 93.9026 198.692 102.037 193.678C106.643 190.929 111.323 189.109 116.078 188.217L116.746 188.106V184.094L139.479 181.197L144.716 183.203L165.443 155.121L186.727 167.49L158.534 210.393L160.094 258.421L159.872 270.122L109.28 265.33C112.103 255.747 113.626 249.432 113.849 246.386C113.998 243.489 112.698 238.883 109.949 232.568C105.937 238.883 101.74 239.514 97.3571 234.463Z" fill="#FF7F28"/>
<path d="M102.707 210.17C100.998 200.364 100.404 195.089 100.924 194.346C101.815 193.121 112.402 188.663 112.625 189.109L114.965 205.267L102.707 210.17Z" fill="#FAFAFA"/>
<path d="M155.303 210.95V239.032H144.605L145.831 210.95H155.303Z" fill="#FAFAFA"/>
<path d="M128.224 224.991C128.224 224.991 128.447 224.991 128.893 224.991C129.339 224.991 129.933 224.954 130.676 224.88C132.385 224.88 134.688 224.842 137.585 224.768H137.919V224.991C137.919 231.789 138.031 241.929 138.031 253.184V253.518H137.585C137.436 253.518 137.251 253.518 137.028 253.518C133.573 253.518 130.119 253.518 127.11 253.518H126.664L126.776 253.184C127.11 245.049 127.444 238.029 127.667 232.903C127.89 230.451 128.002 228.557 128.113 227.108C128.113 226.44 128.15 225.92 128.224 225.548C128.224 225.177 128.224 224.991 128.224 224.991C128.224 224.991 128.224 225.177 128.224 225.548C128.224 225.994 128.224 226.551 128.224 227.22C128.224 228.705 128.187 230.674 128.113 233.126C127.89 238.14 127.556 245.161 127.333 253.184L127.11 252.85C130.119 252.85 133.573 252.85 137.028 252.85C137.251 252.85 137.436 252.85 137.585 252.85L137.362 253.184C137.362 241.929 137.362 231.789 137.473 224.991L137.585 225.214C134.799 225.214 132.459 225.214 130.787 225.102C130.044 225.102 129.413 225.065 128.893 224.991C128.447 224.991 128.224 224.991 128.224 224.991Z" fill="#FAFAFA"/>
<path d="M169.232 193.566L157.977 186.435L167.895 172.171L179.373 178.746L169.232 193.566Z" fill="#FAFAFA"/>
<g opacity="0.4">
<path opacity="0.4" d="M157.977 205.044H125.104V194.346H157.977V205.044Z" fill="white"/>
</g>
<path d="M157.533 223.431C157.421 223.431 157.533 223.096 157.533 222.428C157.607 221.833 157.718 220.942 157.867 219.753C158.09 217.525 158.201 214.516 157.867 210.95C157.533 207.607 156.864 204.598 156.307 202.37C155.638 200.252 155.193 198.915 155.304 198.915C155.304 198.915 155.453 199.212 155.75 199.807C155.973 200.364 156.307 201.255 156.641 202.258C157.421 204.487 158.201 207.496 158.424 210.95C158.758 214.405 158.647 217.525 158.313 219.865C158.09 220.979 157.978 221.871 157.867 222.428C157.644 223.096 157.533 223.431 157.533 223.431Z" fill="#263238"/>
<path d="M173.467 159.802C173.578 159.913 172.798 160.805 171.572 162.365C170.347 163.813 168.564 165.819 166.558 168.048C165.815 168.791 165.109 169.534 164.44 170.277L164.218 170.5L164.106 170.277C162.323 169.162 160.763 168.048 159.649 167.268C158.646 166.488 157.977 165.931 157.977 165.931C158.089 165.931 158.757 166.265 159.872 166.934C160.986 167.602 162.546 168.605 164.44 169.831L163.995 169.942C164.663 169.199 165.369 168.419 166.112 167.602C168.118 165.374 169.901 163.368 171.238 162.031C172.575 160.582 173.467 159.802 173.467 159.802Z" fill="#FAFAFA"/>
<path d="M185.057 169.942C185.057 170.054 183.831 169.497 181.825 168.494C179.708 167.491 177.034 165.931 173.913 164.371C171.016 162.699 168.23 161.25 166.224 160.136C164.33 159.022 163.104 158.242 163.104 158.242C163.216 158.13 164.441 158.687 166.447 159.69C168.565 160.693 171.239 162.253 174.248 163.813C177.256 165.485 180.042 166.934 181.937 168.048C183.943 169.162 185.168 169.942 185.057 169.942Z" fill="#263238"/>
<path d="M88.8889 469.255C84.1343 484.856 81.6456 493.362 81.4228 494.774C81.0885 496.557 64.2618 506.363 59.693 509.037C59.0244 509.372 58.1329 509.483 57.3529 509.149C56.0157 508.48 55.4585 506.809 56.1271 505.583L66.0448 487.419L71.505 462.903L88.8889 469.255Z" fill="#FF7F28"/>
<g opacity="0.6">
<path opacity="0.6" d="M57.3516 509.149L81.8672 493.102L81.6443 494.105C81.4215 494.997 80.8643 495.777 80.0842 496.334C78.0784 497.782 72.5067 501.571 59.8032 509.037C59.0231 509.483 58.1316 509.483 57.3516 509.149Z" fill="white"/>
</g>
<g opacity="0.6">
<g opacity="0.6">
<path opacity="0.6" d="M78.6368 484.076C79.3054 483.63 80.3083 484.076 80.6426 484.856C80.9769 485.413 80.4198 486.528 79.7511 486.751C78.9711 486.973 78.0796 486.639 77.8568 485.859C77.6339 485.19 78.0796 484.299 78.7482 483.965" fill="white"/>
</g>
</g>
<path d="M65.4865 499.9C65.3751 499.9 65.1522 498.451 63.815 497.448C62.5892 496.334 61.1406 496.445 61.1406 496.223C61.1406 496.111 61.5863 496 62.1435 496.111C62.7006 496.111 63.4807 496.445 64.2607 497.003C64.9293 497.56 65.3751 498.34 65.4865 498.897C65.7094 499.454 65.5979 499.9 65.4865 499.9Z" fill="#263238"/>
<path d="M62.9245 502.686C62.813 502.797 62.2559 501.794 61.1415 501.126C59.9157 500.346 58.8014 500.346 58.8014 500.234C58.69 500.123 60.0272 499.9 61.3644 500.68C62.7016 501.46 63.1473 502.686 62.9245 502.686Z" fill="#263238"/>
<path d="M69.8322 496.445C69.6093 496.557 68.7178 494.996 67.0463 493.771C65.2634 492.656 63.5918 492.322 63.5918 492.099C63.5918 491.988 65.4862 492.099 67.3806 493.436C69.1636 494.662 69.9436 496.445 69.8322 496.445Z" fill="#263238"/>
<path d="M72.0621 489.202C71.9507 489.313 70.7249 488.422 69.0534 487.865C67.2704 487.419 65.8217 487.53 65.8217 487.307C65.7103 487.196 67.3818 486.862 69.1648 487.419C71.0592 487.865 72.1735 489.09 72.0621 489.202Z" fill="#263238"/>
<path d="M73.8437 481.959C73.7323 482.07 72.6179 480.956 70.7235 480.622C68.8291 480.176 67.3805 480.845 67.269 480.622C67.1576 480.51 67.6033 480.287 68.272 480.176C68.9406 479.953 69.832 479.953 70.8349 480.064C71.8379 480.287 72.6179 480.733 73.1751 481.179C73.6208 481.625 73.9551 481.959 73.8437 481.959Z" fill="#263238"/>
<path d="M71.0579 479.285C71.0579 479.285 71.0579 478.95 71.2808 478.393C71.5037 477.725 71.838 476.944 72.618 476.164C72.9523 475.719 73.3981 475.162 74.1781 475.05C74.5124 475.05 74.9581 475.162 75.181 475.496C75.4039 475.942 75.4039 476.387 75.2924 476.722C74.9581 478.282 73.2866 479.507 71.5037 479.285C69.6093 479.062 68.2721 477.613 67.9378 476.164C67.8263 475.719 67.8263 475.273 68.1606 474.939C68.4949 474.604 69.0521 474.493 69.275 474.604C70.055 474.939 70.3893 475.496 70.7236 475.942C71.3922 476.833 71.7265 477.613 71.9494 478.17C72.0608 478.727 72.0608 479.173 72.0608 479.173C71.9494 479.173 71.7265 477.725 70.3893 476.164C70.055 475.719 69.6093 475.273 69.1635 475.162C68.9407 475.05 68.7178 475.05 68.4949 475.273C68.3835 475.384 68.3835 475.719 68.4949 476.053C68.7178 477.279 69.9436 478.505 71.5037 478.727C72.9523 478.839 74.5124 477.836 74.8467 476.61C74.9581 476.276 74.9581 476.053 74.8467 475.83C74.6238 475.607 74.401 475.496 74.1781 475.496C73.6209 475.607 73.2866 476.053 72.8409 476.387C71.3922 477.947 71.1694 479.285 71.0579 479.285Z" fill="#263238"/>
<g opacity="0.3">
<path opacity="0.3" d="M71.5034 462.903L88.8872 469.255L87.4385 474.158L70.0547 469.144L70.8348 465.578L71.5034 462.903Z" fill="black"/>
</g>
<path d="M150.623 472.041L149.174 491.542C162.101 496.891 168.601 500.791 168.675 503.243L130.676 501.794L131.679 471.261L150.623 472.041Z" fill="#FF7F28"/>
<g opacity="0.6">
<g opacity="0.6">
<path opacity="0.6" d="M137.362 489.536C138.031 489.202 139.033 489.759 139.256 490.539C139.479 491.208 138.811 492.211 138.031 492.322C137.362 492.545 136.47 491.988 136.359 491.208C136.248 490.428 136.693 489.648 137.473 489.425" fill="white"/>
</g>
</g>
<g opacity="0.6">
<path opacity="0.6" d="M130.676 501.794L130.899 498.674L167.227 501.237C168.341 501.757 168.824 502.426 168.675 503.243L130.676 501.794Z" fill="white"/>
</g>
<path d="M149.842 491.431C149.842 491.654 148.839 491.654 147.947 492.211C146.944 492.768 146.499 493.548 146.276 493.437C146.164 493.437 146.499 492.322 147.613 491.654C148.727 490.985 149.842 491.208 149.842 491.431Z" fill="#263238"/>
<path d="M153.743 493.214C153.743 493.437 152.963 493.66 152.294 494.44C151.626 495.22 151.403 496 151.291 496C151.068 496 150.957 494.997 151.737 493.994C152.629 493.102 153.743 493.102 153.743 493.214Z" fill="#263238"/>
<path d="M155.75 498.117C155.638 498.117 155.415 497.114 155.861 496.111C156.418 495.22 157.31 494.774 157.421 494.997C157.533 495.108 156.975 495.665 156.53 496.445C156.084 497.337 156.084 498.117 155.75 498.117Z" fill="#263238"/>
<path d="M149.619 486.862C149.619 487.085 148.728 486.75 147.614 486.862C146.611 486.862 145.831 487.085 145.719 486.973C145.608 486.862 146.388 486.193 147.614 486.193C148.951 486.082 149.731 486.75 149.619 486.862Z" fill="#263238"/>
<g opacity="0.3">
<path opacity="0.3" d="M150.401 475.941L150.066 479.396L131.457 478.504L131.568 474.493L150.401 475.941Z" fill="black"/>
</g>
<path d="M149.843 482.962C149.843 482.962 149.175 483.185 147.949 482.85C147.355 482.776 146.686 482.553 145.943 482.182C145.646 482.033 145.312 481.847 144.94 481.624C144.717 481.513 144.606 481.29 144.383 481.067C144.16 480.956 144.049 480.399 144.272 480.064C144.495 479.842 144.829 479.73 145.163 479.73C145.497 479.73 145.609 479.841 145.832 479.841C146.277 479.99 146.686 480.139 147.058 480.287C147.726 480.622 148.283 481.067 148.729 481.513C149.621 482.404 149.843 483.073 149.843 483.185C149.732 483.185 149.398 482.516 148.395 481.847C148.06 481.513 147.392 481.179 146.723 480.844C146.426 480.696 146.092 480.547 145.72 480.399C145.275 480.287 144.94 480.287 144.829 480.51C144.829 480.51 144.829 480.51 144.829 480.733C144.977 480.807 145.126 480.919 145.275 481.067C145.572 481.29 145.906 481.476 146.277 481.624C146.946 481.996 147.54 482.256 148.06 482.404C149.175 482.739 149.843 482.85 149.843 482.962Z" fill="#263238"/>
<path d="M149.62 483.185C149.62 483.296 149.174 482.627 149.174 481.29C149.174 480.733 149.286 480.064 149.508 479.284C149.657 478.913 149.843 478.541 150.066 478.17C150.288 477.724 150.623 477.279 151.291 477.167C151.626 477.167 151.96 477.501 152.071 477.836C152.183 478.059 152.183 478.281 152.294 478.504C152.294 478.95 152.257 479.396 152.183 479.841C152.071 480.51 151.626 481.179 151.291 481.736C150.511 482.627 149.731 482.85 149.731 482.85C149.731 482.739 150.4 482.404 150.957 481.513C151.254 480.993 151.477 480.362 151.626 479.619C151.7 479.321 151.7 478.987 151.626 478.616C151.626 478.17 151.403 477.836 151.291 477.836C151.18 477.836 150.734 478.17 150.623 478.504C150.4 478.876 150.214 479.21 150.066 479.507C149.843 480.176 149.731 480.844 149.62 481.402C149.62 482.516 149.731 483.185 149.62 483.185Z" fill="#263238"/>
<path d="M102.482 221.537L112.288 222.094C112.734 224.174 113.663 226.848 115.074 230.117C122.986 216.411 129.115 198.024 130.675 190.558C130.452 189.815 130.192 188.998 129.895 188.106C129.561 187.103 129.784 184.986 130.006 183.983C130.341 182.312 130.675 180.083 130.898 179.08C131.344 175.848 131.789 175.403 132.904 175.737C134.352 176.294 132.235 184.54 133.461 184.763C134.129 184.875 134.91 181.977 135.132 179.637C135.467 177.297 136.47 170.165 137.25 169.719C138.364 168.939 139.367 170.054 139.033 172.394C138.81 174.734 138.364 181.754 139.701 181.866C140.444 181.866 141.15 177.929 141.818 170.054C141.744 168.345 142.19 167.491 143.156 167.491C145.719 167.602 143.713 180.194 143.379 181.42C143.267 182.2 144.604 182.312 144.716 181.42C144.827 180.529 145.496 169.608 148.17 169.608C150.065 169.719 146.499 179.971 147.613 182.312C148.839 184.763 149.619 174.288 151.513 174.4C152.293 174.4 152.739 174.623 151.402 180.529C150.733 183.76 148.727 189.555 146.833 194.458C143.824 210.839 130.452 263.436 109.502 253.741C101.628 250.175 95.9077 239.515 92.3418 221.759L102.482 221.537Z" fill="#FFBE9D"/>
<path d="M146.834 194.346C146.834 194.346 146.871 194.235 146.946 194.012C147.02 193.789 147.131 193.455 147.28 193.009C147.651 192.043 148.134 190.743 148.728 189.109C149.286 187.326 149.954 185.209 150.734 182.757C151.069 181.531 151.403 180.194 151.626 178.746C151.774 178.003 151.886 177.26 151.96 176.517C152.072 176.071 152.072 175.737 152.072 175.403C152.072 174.957 151.96 174.622 151.626 174.622C151.291 174.622 151.18 174.845 150.846 175.18C150.734 175.514 150.511 175.848 150.4 176.294C150.103 177.111 149.88 177.928 149.731 178.746C149.509 179.637 149.286 180.529 148.951 181.42C148.84 181.866 148.728 182.311 148.394 182.757C148.283 182.869 148.283 182.98 148.171 182.98C147.948 182.98 147.837 182.98 147.726 182.869C147.614 182.757 147.503 182.534 147.503 182.423C147.354 182.2 147.28 181.977 147.28 181.754C147.057 179.748 147.503 177.743 147.837 175.737C148.06 174.771 148.208 173.768 148.283 172.728C148.394 172.171 148.394 171.614 148.394 171.168C148.506 170.722 148.394 170.054 148.171 169.942C147.948 169.831 147.503 170.165 147.28 170.611C146.983 170.982 146.76 171.428 146.611 171.948C146.277 173.062 145.943 174.065 145.831 175.18C145.608 176.294 145.46 177.408 145.385 178.523C145.311 179.117 145.237 179.674 145.163 180.194L145.051 181.086C145.051 181.42 145.051 181.866 144.717 182.2C144.271 182.423 143.937 182.423 143.491 182.2C143.268 182.089 143.157 181.866 143.157 181.643C143.157 181.494 143.157 181.383 143.157 181.309V181.086C143.231 180.491 143.305 179.897 143.38 179.303C143.602 178.114 143.788 176.925 143.937 175.737C144.011 174.548 144.048 173.36 144.048 172.171C144.048 170.945 144.048 169.719 143.714 168.605C143.602 168.271 143.38 167.936 143.268 167.936C143.045 167.714 142.711 167.936 142.488 168.048C142.265 168.494 142.154 169.385 142.154 170.054C142.042 172.394 141.708 174.734 141.374 177.074C141.262 178.188 141.039 179.303 140.705 180.417C140.631 180.64 140.557 180.9 140.482 181.197C140.371 181.531 140.371 181.754 139.925 182.089C139.591 182.311 139.257 182.089 139.145 181.866C139.034 181.754 138.922 181.643 138.922 181.531C138.774 181.234 138.699 180.937 138.699 180.64C138.365 178.3 138.476 176.183 138.588 174.065C138.699 172.951 138.922 171.948 138.811 170.945C138.699 170.499 138.476 170.054 138.254 169.831C138.105 169.757 137.919 169.719 137.696 169.719C137.622 169.794 137.511 169.831 137.362 169.831C137.362 169.942 137.362 169.942 137.251 170.054C136.916 170.834 136.694 171.837 136.471 172.84C136.322 173.805 136.136 174.771 135.914 175.737C135.765 176.628 135.653 177.52 135.579 178.411C135.468 179.414 135.356 180.306 135.133 181.197C135.022 182.089 134.799 182.98 134.465 183.76C134.391 183.983 134.316 184.206 134.242 184.429C134.019 184.652 134.019 184.874 133.685 184.986C133.351 184.986 133.239 184.874 133.128 184.763C133.053 184.614 132.979 184.466 132.905 184.317C132.905 184.094 132.905 183.909 132.905 183.76C132.905 181.977 133.128 180.417 133.128 178.968C133.239 178.188 133.239 177.408 133.128 176.74C133.128 176.405 133.016 176.071 132.905 175.96C132.57 175.848 132.236 175.848 132.013 175.96C131.568 176.294 131.456 177.074 131.345 177.631C131.122 178.188 131.01 178.857 130.899 179.414C130.565 181.754 130.119 183.872 129.896 185.543C129.785 186.323 129.785 187.103 129.896 187.66C130.007 188.329 130.23 188.886 130.342 189.22C130.416 189.666 130.49 190 130.565 190.223C130.639 190.446 130.676 190.558 130.676 190.558C130.676 190.558 130.639 190.446 130.565 190.223C130.49 190 130.379 189.703 130.23 189.332C130.007 188.886 129.896 188.329 129.673 187.66C129.562 187.103 129.562 186.323 129.673 185.432C129.785 183.76 130.23 181.754 130.676 179.303C130.676 178.857 130.788 178.188 130.899 177.52C131.01 177.185 131.01 176.851 131.233 176.517C131.345 176.294 131.456 175.848 131.79 175.625C132.236 175.403 132.57 175.514 133.016 175.625C133.462 175.848 133.462 176.405 133.573 176.628C133.685 177.408 133.685 178.188 133.573 178.968C133.462 180.529 133.239 182.089 133.351 183.76C133.351 183.909 133.351 184.057 133.351 184.206C133.462 184.429 133.462 184.54 133.462 184.54C133.573 184.54 133.685 184.317 133.796 184.206C133.871 183.983 133.945 183.76 134.019 183.537C134.353 182.869 134.576 181.977 134.688 181.086C134.911 180.194 134.911 179.303 135.022 178.411C135.171 177.52 135.319 176.591 135.468 175.625C135.616 174.66 135.765 173.694 135.914 172.728C136.248 171.725 136.359 170.834 136.805 169.831C136.805 169.719 137.028 169.385 137.139 169.385C137.288 169.311 137.436 169.236 137.585 169.162C137.919 169.162 138.254 169.162 138.477 169.385C139.034 169.719 139.257 170.277 139.368 170.834C139.479 171.502 139.368 171.948 139.257 172.505C139.257 173.025 139.219 173.545 139.145 174.065C139.034 176.183 138.922 178.411 139.257 180.529C139.331 180.751 139.405 181.011 139.479 181.309C139.479 181.383 139.517 181.457 139.591 181.531H139.702C139.702 181.754 139.702 181.643 139.702 181.643C139.702 181.643 139.702 181.643 139.591 181.531C139.702 181.531 139.814 181.309 139.925 180.974C139.999 180.751 140.074 180.491 140.148 180.194C140.371 179.191 140.594 178.077 140.705 176.851C141.151 174.734 141.374 172.394 141.597 170.054C141.597 169.274 141.485 168.494 142.042 167.714C142.377 167.268 142.934 167.156 143.491 167.268C143.937 167.491 144.16 168.048 144.271 168.382C144.717 169.719 144.717 170.945 144.717 172.171C144.717 173.434 144.643 174.66 144.494 175.848C144.345 177.037 144.197 178.226 144.048 179.414C143.974 180.008 143.9 180.603 143.825 181.197C143.714 181.531 143.714 181.531 143.825 181.643C143.937 181.754 144.16 181.754 144.271 181.643C144.494 181.531 144.494 181.42 144.494 181.086L144.605 180.194C144.605 179.6 144.643 179.006 144.717 178.411C144.865 177.297 145.051 176.183 145.274 175.068C145.385 173.954 145.608 172.84 145.943 171.725C146.165 171.279 146.388 170.722 146.723 170.165C146.946 169.942 147.168 169.719 147.391 169.608C147.614 169.385 147.948 169.274 148.394 169.385C148.84 169.608 148.951 170.054 148.951 170.277C149.026 170.574 149.063 170.871 149.063 171.168C149.063 171.688 148.988 172.208 148.84 172.728C148.691 173.768 148.543 174.808 148.394 175.848C148.06 177.854 147.614 179.86 147.837 181.643C147.837 181.866 147.874 182.089 147.948 182.311C148.023 182.386 148.06 182.423 148.06 182.423C148.06 182.423 148.06 182.423 148.06 182.534C148.06 182.534 148.06 182.423 148.06 182.534C147.948 182.423 148.06 182.423 148.06 182.423C148.283 182.2 148.394 181.643 148.506 181.309C148.84 180.417 148.951 179.414 149.174 178.634C149.509 177.743 149.62 176.851 149.954 176.071C150.066 175.737 150.289 175.291 150.511 174.957C150.623 174.734 150.734 174.511 150.957 174.4C151.106 174.325 151.217 174.251 151.291 174.177C151.44 174.177 151.589 174.177 151.737 174.177C151.96 174.177 152.294 174.4 152.294 174.734C152.406 174.957 152.406 175.068 152.406 175.403C152.517 175.737 152.406 176.183 152.406 176.517C152.294 177.297 152.183 178.077 152.072 178.857C151.737 180.194 151.403 181.643 150.957 182.869C150.289 185.32 149.509 187.437 148.951 189.109C148.283 190.892 147.763 192.229 147.391 193.121C147.243 193.492 147.131 193.826 147.057 194.124C146.983 194.272 146.908 194.346 146.834 194.346Z" fill="#EB996E"/>
<path d="M92.6781 215.853C106.347 214.813 113.108 214.107 112.959 213.736C112.81 213.29 113.516 218.75 115.076 230.117L105.27 250.843C104.601 252.292 102.373 252.292 101.816 250.621C97.8041 239.7 94.1268 229.337 92.2324 222.651L92.6781 215.853Z" fill="#E8505B"/>
<path d="M118.753 224.322C118.642 224.322 118.419 224.099 117.973 223.988C117.416 223.876 116.636 223.876 115.968 224.434L115.745 224.768L115.633 224.434C115.076 223.096 114.407 221.313 113.739 219.419C112.179 214.962 111.064 211.396 111.176 211.396C111.399 211.284 112.736 214.739 114.296 219.196C115.076 221.091 115.633 222.874 116.079 224.211L115.633 224.099C116.079 223.765 116.525 223.542 116.97 223.542C117.416 223.542 117.751 223.654 118.085 223.765C118.531 223.988 118.753 224.322 118.753 224.322Z" fill="#263238"/>
<path d="M104.823 244.046C104.711 243.934 105.269 242.82 106.272 241.037C107.163 239.366 108.5 236.914 110.06 234.128C111.509 231.565 112.958 229.114 113.961 227.442C114.963 225.659 115.743 224.656 115.743 224.656C115.855 224.768 115.298 225.882 114.295 227.665C113.403 229.448 112.066 231.9 110.617 234.574C109.057 237.137 107.609 239.589 106.606 241.26C105.603 243.043 104.823 244.046 104.823 244.046Z" fill="#263238"/>
<path d="M98.2484 240.926C98.2484 240.926 98.917 240.48 99.9202 239.7C101.034 239.032 102.706 238.029 104.711 236.803L104.489 237.137C103.486 234.574 102.26 231.566 100.811 228.334C99.1399 224.434 97.5798 220.645 96.4655 217.971H96.7998C95.2397 218.862 94.0139 219.531 93.1224 219.977C92.2309 220.422 91.7481 220.645 91.6738 220.645C91.6738 220.534 92.2309 220.311 93.011 219.754C93.8282 219.234 95.0168 218.528 96.5769 217.636L96.7998 217.525L96.9112 217.748C98.137 220.422 99.6972 224.1 101.368 228.111C102.706 231.343 103.931 234.352 105.046 236.915V237.137L104.934 237.249C102.928 238.363 101.257 239.366 100.143 239.923C98.917 240.592 98.2484 240.926 98.2484 240.926Z" fill="#FAFAFA"/>
<path d="M50.3317 465.021C47.4344 464.129 45.54 461.121 46.0972 458.112C51.6689 428.47 95.797 289.289 97.4685 282.714C98.5828 277.811 103.189 268.97 111.286 256.192L160.094 258.421C163.735 270.753 166.261 278.665 167.672 282.157C169.455 286.837 160.317 437.274 158.2 470.37C157.977 474.047 154.968 476.833 151.403 476.944L50.3317 465.021Z" fill="#263238"/>
<path d="M120.871 257.195C120.871 257.27 120.834 257.455 120.759 257.753C120.536 258.05 120.276 258.533 119.979 259.201C119.311 260.538 118.419 262.544 117.305 264.996C116.785 266.259 116.19 267.67 115.522 269.23C114.853 270.79 114.185 272.462 113.516 274.356C112.847 276.139 112.067 278.145 111.399 280.262C110.656 282.342 109.913 284.571 109.17 286.948C108.501 289.326 107.759 291.814 106.941 294.415C106.273 296.978 105.604 299.652 104.936 302.549C104.267 305.372 103.561 308.27 102.818 311.241C102.261 314.361 101.481 317.481 100.924 320.713C99.5867 327.065 98.2492 333.862 96.912 340.771C95.5748 347.792 94.1261 355.035 92.4546 362.39C91.5631 366.067 90.6716 369.744 89.7802 373.199C88.7773 376.765 87.7743 380.331 86.7714 383.674C84.7656 390.583 82.4255 397.046 80.0854 403.175C75.4051 415.432 70.6134 426.13 66.3789 435.156C62.1444 444.071 58.5785 451.203 56.0155 456.106C54.6783 458.558 53.7868 460.452 53.1182 461.789C52.7468 462.383 52.4868 462.866 52.3382 463.238C52.1896 463.461 52.0782 463.609 52.0039 463.684C52.0782 463.609 52.1896 463.461 52.3382 463.238C52.4868 462.866 52.7096 462.383 53.0068 461.789C53.6754 460.378 54.604 458.446 55.7926 455.995C58.2442 451.091 61.8101 443.848 65.9332 434.933C70.1677 426.019 74.9594 415.21 79.5282 402.952C81.8683 396.823 84.097 390.36 86.2143 383.451C87.2172 380.108 88.2201 376.653 89.1116 373.087C90.003 369.521 91.006 365.955 91.786 362.278C93.4575 354.923 94.9062 347.68 96.3548 340.66C97.692 333.639 99.0292 326.953 100.255 320.602C100.924 317.37 101.704 314.25 102.373 311.13C103.041 308.158 103.71 305.261 104.378 302.438C105.158 299.54 105.827 296.866 106.496 294.303C107.239 291.703 107.981 289.214 108.724 286.837C109.542 284.46 110.284 282.231 110.953 280.151C111.733 278.034 112.513 276.028 113.182 274.245C113.85 272.35 114.63 270.679 115.188 269.119C115.93 267.559 116.562 266.147 117.082 264.884C118.271 262.359 119.199 260.464 119.868 259.201C120.239 258.533 120.499 258.05 120.648 257.753C120.796 257.455 120.871 257.27 120.871 257.195Z" fill="#455A64"/>
<path d="M77.8555 467.918C77.8555 467.769 77.8927 467.584 77.9669 467.361C78.1155 466.989 78.2641 466.469 78.4127 465.801C78.7841 464.315 79.3413 462.272 80.0842 459.672C81.5328 454.323 83.6501 446.745 86.3245 437.274C88.8875 427.802 91.8963 416.547 95.2393 403.955C96.9108 397.603 98.5823 391.14 100.365 384.231C102.037 377.433 103.82 370.301 105.603 363.058C107.386 355.704 109.057 348.572 110.729 341.774C112.4 334.865 113.96 328.291 115.409 321.939C118.306 309.235 120.758 297.869 122.875 288.286C124.881 278.702 126.553 270.902 127.667 265.553C128.224 262.879 128.781 260.873 129.004 259.313C129.153 258.644 129.264 258.124 129.338 257.753C129.413 257.455 129.487 257.27 129.561 257.195C129.561 257.344 129.524 257.53 129.45 257.753C129.376 258.198 129.264 258.755 129.116 259.424C128.893 260.873 128.447 262.879 128.001 265.553C127.407 268.302 126.738 271.57 125.995 275.359C125.215 279.259 124.324 283.605 123.321 288.397C121.315 297.98 118.864 309.347 115.966 322.05C114.406 328.402 112.958 335.088 111.397 341.886C109.726 348.795 108.054 355.926 106.16 363.17C104.377 370.413 102.594 377.545 100.923 384.454C99.1395 391.251 97.468 397.826 95.7965 404.066C92.4534 416.658 89.3333 427.913 86.7703 437.385C85.4331 442.065 84.2073 446.411 83.0929 450.089C81.9786 453.877 81.0871 457.109 80.3071 459.672C79.527 462.346 78.9699 464.352 78.5241 465.801C78.3012 466.469 78.1527 466.989 78.0784 467.361C77.9298 467.584 77.8555 467.769 77.8555 467.918Z" fill="#455A64"/>
<path d="M135.914 257.307C135.989 257.455 136.063 257.641 136.137 257.864C136.137 258.235 136.174 258.793 136.249 259.535C136.323 260.204 136.434 261.058 136.583 262.098C136.694 263.213 136.694 264.439 136.806 265.887C136.806 266.556 136.843 267.262 136.917 268.004C136.991 268.822 137.029 269.639 137.029 270.456C137.029 271.273 137.029 272.127 137.029 273.019C136.917 273.91 136.806 274.913 136.806 275.916C136.731 276.882 136.694 277.885 136.694 278.925C136.62 279.965 136.509 281.042 136.36 282.157C136.249 284.385 135.803 286.725 135.58 289.177C134.8 294.08 133.797 299.318 132.571 305.001C131.345 310.684 129.897 316.701 128.337 323.053C126.777 329.405 125.217 336.091 123.879 343.111C122.542 350.094 121.428 357.301 120.536 364.73C119.533 372.196 118.753 379.55 117.973 386.571C117.193 393.703 116.413 400.5 115.633 406.963C115.187 410.232 114.742 413.389 114.296 416.435C113.85 419.444 113.405 422.341 112.959 425.239C112.29 428.136 111.844 430.922 111.287 433.596C110.693 436.196 110.136 438.685 109.616 441.062C108.947 443.439 108.353 445.705 107.833 447.86C107.276 450.088 106.607 452.094 105.938 453.877C105.716 454.88 105.493 455.772 105.158 456.663C104.861 457.48 104.527 458.297 104.155 459.115C103.635 460.675 103.115 462.123 102.595 463.461C101.592 465.912 100.59 467.918 100.032 469.255C99.7347 469.849 99.5117 470.332 99.3635 470.704C99.2892 470.927 99.2149 471.112 99.1406 471.261C99.1406 471.112 99.1777 470.927 99.252 470.704C99.4006 470.332 99.6237 469.812 99.9207 469.144C100.478 467.806 101.37 465.912 102.372 463.349C102.818 462.012 103.338 460.563 103.933 459.003C104.23 458.186 104.527 457.369 104.824 456.552C105.158 455.66 105.381 454.769 105.716 453.766C106.273 451.983 106.83 449.866 107.498 447.86C108.019 445.631 108.576 443.365 109.17 441.062C109.69 438.611 110.247 436.085 110.842 433.485C111.399 430.81 111.844 428.024 112.402 425.239C112.847 422.341 113.33 419.37 113.85 416.324C114.222 413.204 114.63 410.046 115.076 406.852C115.856 400.389 116.636 393.591 117.416 386.571C118.196 379.439 118.976 372.196 119.868 364.73C120.871 357.263 121.985 349.909 123.322 343C124.659 335.979 126.219 329.293 127.78 322.942C129.34 316.59 130.788 310.572 132.126 305.001C133.314 299.28 134.317 293.969 135.134 289.066C135.469 286.725 135.803 284.385 135.914 282.157C136.063 281.042 136.211 279.965 136.36 278.925C136.36 277.885 136.397 276.882 136.471 275.916C136.583 274.913 136.583 273.91 136.583 273.019C136.583 272.127 136.62 271.273 136.694 270.456C136.694 269.639 136.694 268.822 136.694 268.004C136.62 267.262 136.583 266.556 136.583 265.887C136.471 264.439 136.471 263.213 136.36 262.21C136.286 261.095 136.211 260.204 136.137 259.535C136.137 258.793 136.1 258.235 136.026 257.864C135.951 257.641 135.914 257.455 135.914 257.307Z" fill="#455A64"/>
<path d="M130.676 475.496C130.602 475.421 130.565 475.236 130.565 474.939C130.49 474.567 130.379 474.047 130.23 473.378C130.082 472.636 129.933 471.744 129.785 470.704C129.562 469.59 129.227 468.475 129.116 467.027C128.967 465.689 128.782 464.166 128.559 462.458C128.447 460.786 128.336 458.892 128.224 456.998C128.15 456.032 128.113 455.029 128.113 453.989C128.113 452.874 128.113 451.76 128.113 450.646C128.113 449.531 128.113 448.38 128.113 447.191C128.113 446.077 128.15 444.888 128.224 443.625C128.224 442.437 128.262 441.174 128.336 439.837C128.41 438.574 128.522 437.274 128.67 435.936C128.893 433.188 129.19 430.365 129.562 427.467C129.785 424.57 130.342 421.561 130.787 418.553C131.233 415.544 131.679 412.312 132.348 409.081C134.688 396.266 138.031 382.225 140.928 367.404C143.937 352.583 145.943 338.431 147.28 325.393C148.506 312.356 149.063 300.543 149.174 290.737C149.174 285.723 149.174 281.265 149.174 277.365C149.063 273.465 148.951 270.01 148.84 267.225C148.84 264.55 148.617 262.321 148.617 260.873C148.617 260.204 148.58 259.684 148.506 259.313C148.506 259.016 148.506 258.793 148.506 258.644C148.58 258.793 148.617 259.016 148.617 259.313C148.617 259.684 148.654 260.204 148.728 260.873C148.84 262.321 148.951 264.55 149.063 267.225C149.286 270.01 149.397 273.465 149.508 277.365C149.62 281.265 149.62 285.723 149.62 290.737C149.508 300.543 149.063 312.356 147.837 325.393C146.611 338.431 144.605 352.695 141.597 367.516C138.588 382.336 135.356 396.377 132.905 409.192C132.348 412.424 131.79 415.544 131.345 418.664C130.787 421.784 130.342 424.682 130.007 427.579C129.673 430.476 129.339 433.151 129.116 435.936C129.042 437.274 128.93 438.574 128.782 439.837C128.782 441.174 128.707 442.437 128.559 443.625C128.559 444.888 128.522 446.114 128.447 447.303C128.447 448.417 128.447 449.531 128.447 450.646C128.447 451.76 128.447 452.837 128.447 453.877C128.522 454.992 128.559 456.032 128.559 456.998C128.782 458.892 128.782 460.786 128.893 462.458C129.116 464.166 129.265 465.689 129.339 467.027C129.562 468.364 129.785 469.59 129.896 470.593C130.045 471.633 130.193 472.561 130.342 473.378C130.49 474.047 130.565 474.567 130.565 474.939C130.639 475.161 130.676 475.347 130.676 475.496Z" fill="#455A64"/>
<path d="M157.419 258.31C157.419 258.458 157.456 258.644 157.53 258.867C157.679 259.238 157.865 259.758 158.088 260.427C158.236 261.096 158.459 261.95 158.756 262.99C159.091 263.993 159.425 265.219 159.648 266.556C159.871 267.893 160.316 269.453 160.539 271.125C160.762 272.759 161.022 274.542 161.319 276.473C161.468 278.405 161.616 280.485 161.765 282.714C161.876 284.943 161.988 287.283 161.988 289.734C161.876 294.637 161.542 300.098 160.874 305.892C160.205 311.687 159.202 317.704 158.088 324.167C156.899 330.556 155.673 337.242 154.41 344.226C153.073 351.246 151.959 358.489 150.844 365.844C149.841 373.31 148.95 380.665 148.281 387.685C147.501 394.705 147.056 401.503 146.61 408.078C146.276 414.541 145.941 420.67 145.83 426.464C145.718 432.259 145.718 437.719 145.718 442.622C145.718 447.525 145.793 451.946 145.941 455.883C146.053 459.783 146.276 463.238 146.276 465.912C146.498 468.587 146.498 470.815 146.61 472.264C146.61 472.933 146.647 473.453 146.721 473.824C146.721 474.121 146.721 474.344 146.721 474.493C146.647 474.344 146.61 474.121 146.61 473.824C146.61 473.453 146.573 472.933 146.498 472.264C146.387 470.815 146.276 468.698 146.053 465.912C145.941 463.238 145.718 459.783 145.607 455.883C145.496 451.983 145.384 447.525 145.273 442.622C145.273 437.719 145.273 432.259 145.384 426.464C145.496 420.67 145.718 414.541 146.164 407.966C146.498 401.503 146.944 394.705 147.613 387.574C148.393 380.553 149.173 373.199 150.287 365.844C151.29 358.378 152.404 351.135 153.742 344.114C155.079 337.131 156.342 330.445 157.53 324.056C158.756 317.704 159.648 311.575 160.428 305.781C161.096 300.098 161.431 294.637 161.431 289.734C161.542 287.283 161.431 284.943 161.431 282.714C161.282 280.559 161.096 278.516 160.874 276.585C160.651 274.579 160.428 272.759 160.205 271.125C159.982 269.453 159.648 268.004 159.425 266.667C159.128 265.256 158.868 264.03 158.645 262.99C158.348 262.024 158.125 261.17 157.976 260.427C157.828 259.758 157.679 259.238 157.53 258.867C157.456 258.644 157.419 258.458 157.419 258.31Z" fill="#455A64"/>
</svg>
