<svg width="406" height="595" viewBox="0 0 406 595" fill="none" xmlns="http://www.w3.org/2000/svg">
<path d="M345.839 51.6956L345.785 395.688C345.785 407.526 336.207 417.157 324.37 417.104L184.577 417.05C172.793 417.05 163.27 407.418 163.27 395.581L163.323 51.5879C163.323 39.7503 172.901 30.1725 184.685 30.1725H208.468H217.992C221.651 30.1725 224.61 33.2933 224.61 37.1137V42.064C224.61 45.8843 227.57 48.9514 231.175 49.0052H284.122C287.781 49.0052 290.74 45.9381 290.74 42.1178V37.1675C290.74 33.3471 293.699 30.2263 297.305 30.2263L324.477 30.2801C336.261 30.2801 345.839 39.8579 345.839 51.6956V51.6956Z" fill="white"/>
<path d="M324.477 30.28C324.62 30.28 324.872 30.28 325.23 30.28C325.715 30.3338 326.414 30.28 327.383 30.4414C329.266 30.6567 332.171 31.3024 335.4 33.2394C337.014 34.1542 338.682 35.4994 340.296 37.2212C341.857 38.9431 343.31 41.0954 344.332 43.6243C345.354 46.1533 345.946 49.1665 345.892 52.3412C345.892 55.4979 345.91 58.8519 345.946 62.4032C345.946 90.9751 345.946 132.246 346 183.309C346 234.319 346 295.068 346 362.543C346 370.972 346 379.51 346 388.155C346 390.307 346 392.478 346 394.666C346 395.742 345.946 396.818 345.892 397.948C345.731 399.024 345.57 400.1 345.247 401.177C344.224 405.481 341.695 409.355 338.305 412.261C336.584 413.714 334.647 414.844 332.602 415.758C330.503 416.619 328.297 417.104 326.037 417.265L324.369 417.373H322.701H319.311C317.087 417.373 314.845 417.373 312.585 417.373C303.582 417.373 294.488 417.355 285.305 417.319C266.956 417.319 248.285 417.319 229.291 417.319C219.821 417.319 210.279 417.319 200.665 417.319C195.859 417.319 191.034 417.301 186.191 417.265C181.348 417.534 176.344 416.243 172.309 413.391C168.219 410.593 165.26 406.342 163.861 401.661C163.161 399.347 163 396.872 163 394.451C163 392.047 163 389.644 163 387.24C163 377.627 163 368.067 163 358.561C163 339.621 163 320.949 163 302.547C163.054 265.85 163.054 230.445 163.054 196.707C163.054 162.97 163.108 130.9 163.108 100.876C163.108 85.8634 163.108 71.3891 163.108 57.4529C163.108 55.7311 163.108 54.0092 163.108 52.2874C163.108 51.4264 163.215 50.5655 163.215 49.7046C163.323 48.8437 163.43 47.9828 163.592 47.1218C164.345 43.7858 165.852 40.6111 167.95 37.9745C172.201 32.7552 178.819 29.7957 185.276 30.011C191.626 30.011 197.849 30.011 203.948 30.011C206.961 30.011 209.956 30.011 212.934 30.011C214.404 30.011 215.857 30.011 217.292 30.011C218.745 29.9572 220.305 30.2262 221.543 31.0871C222.78 31.8942 223.695 33.078 224.233 34.4232C224.502 35.1227 224.664 35.8222 224.717 36.5217C224.771 37.275 224.717 37.9207 224.771 38.6202C224.771 40.0192 224.717 41.4182 224.771 42.7634C224.933 44.1086 225.471 45.4 226.278 46.4223C227.139 47.4447 228.269 48.2518 229.506 48.5746C230.744 48.9513 232.089 48.7899 233.38 48.8437C235.999 48.8437 238.582 48.8437 241.129 48.8437C251.245 48.8437 260.715 48.8975 269.378 48.8975C273.718 48.8975 277.862 48.8975 281.807 48.8975C282.83 48.8975 283.798 48.9513 284.767 48.8975C285.682 48.7899 286.596 48.467 287.403 47.9828C288.964 47.0142 290.04 45.4 290.417 43.6781C290.632 42.8172 290.632 41.9563 290.632 41.0416C290.632 40.1806 290.632 39.3377 290.632 38.5126C290.632 37.6517 290.578 36.8446 290.739 35.9836C290.847 35.1765 291.116 34.4232 291.493 33.7237C292.246 32.2709 293.484 31.1948 294.883 30.6567C296.282 30.011 297.788 30.1724 299.133 30.1724C304.622 30.1724 309.249 30.1724 313.016 30.1724C316.782 30.2262 319.634 30.2262 321.571 30.2262C322.863 30.2262 323.831 30.2441 324.477 30.28C323.831 30.28 322.863 30.28 321.571 30.28C319.634 30.28 316.782 30.28 313.016 30.28C309.249 30.28 304.622 30.3338 299.133 30.3338C297.734 30.3338 296.282 30.1724 294.936 30.8181C293.591 31.3562 292.408 32.3785 291.654 33.7775C291.278 34.477 291.009 35.2303 290.901 36.0374C290.793 36.8446 290.793 37.6517 290.793 38.5126C290.793 39.3377 290.793 40.1806 290.793 41.0416C290.793 41.9025 290.847 42.8172 290.632 43.7319C290.255 45.4538 289.125 47.1218 287.511 48.1442C286.704 48.6284 285.735 49.0051 284.767 49.0589C283.798 49.1665 282.83 49.1127 281.807 49.1127C277.862 49.1127 273.718 49.1127 269.378 49.1127C260.715 49.1127 251.245 49.1127 241.129 49.1127C238.582 49.1127 235.999 49.1127 233.38 49.1127C232.735 49.1127 232.089 49.1127 231.443 49.1127C230.744 49.1127 230.098 49.0589 229.399 48.8437C228.107 48.5208 226.924 47.7137 226.063 46.6376C225.202 45.5614 224.61 44.2162 224.502 42.8172C224.395 41.4182 224.448 40.0192 224.448 38.6202C224.448 37.9745 224.448 37.2212 224.395 36.5755C224.341 35.876 224.233 35.1765 223.964 34.5308C223.426 33.2394 222.565 32.1095 221.381 31.3562C220.198 30.5491 218.745 30.28 217.292 30.3338C215.857 30.3338 214.404 30.3338 212.934 30.3338C209.956 30.3338 206.961 30.3338 203.948 30.3338C197.849 30.3338 191.626 30.3338 185.276 30.3338C178.927 30.1186 172.416 33.078 168.219 38.2436C166.175 40.8263 164.668 43.8934 163.969 47.2294C163.807 48.0366 163.646 48.8975 163.592 49.7046C163.538 50.5655 163.484 51.4264 163.484 52.2874C163.484 54.0092 163.484 55.7311 163.484 57.4529C163.484 71.3891 163.484 85.8634 163.484 100.876C163.484 130.9 163.484 162.97 163.538 196.707C163.484 230.445 163.484 265.85 163.484 302.547C163.484 320.949 163.484 339.621 163.484 358.561C163.484 368.067 163.484 377.627 163.484 387.24C163.484 389.644 163.484 392.047 163.484 394.451C163.484 396.872 163.646 399.239 164.345 401.553C165.69 406.127 168.596 410.27 172.578 413.014C176.56 415.758 181.402 417.05 186.191 416.781C191.034 416.781 195.859 416.781 200.665 416.781C210.279 416.817 219.821 416.835 229.291 416.835C248.285 416.835 266.956 416.835 285.305 416.835C294.488 416.87 303.582 416.888 312.585 416.888C314.845 416.888 317.087 416.888 319.311 416.888H322.701H324.369L325.984 416.781C328.19 416.619 330.396 416.135 332.387 415.328C334.431 414.467 336.315 413.283 337.983 411.884C341.319 409.086 343.794 405.266 344.816 401.069C345.139 400.047 345.247 398.97 345.408 397.894C345.462 396.818 345.57 395.742 345.516 394.666C345.516 392.478 345.516 390.307 345.516 388.155C345.516 379.51 345.516 370.972 345.516 362.543C345.57 295.068 345.623 234.319 345.623 183.309C345.677 132.246 345.731 90.9751 345.731 62.4032C345.731 58.8519 345.731 55.4979 345.731 52.3412C345.785 49.1665 345.247 46.2071 344.171 43.6781C343.148 41.1492 341.749 38.9969 340.189 37.3288C338.628 35.607 336.96 34.2618 335.346 33.3471C332.118 31.41 329.266 30.7643 327.383 30.4953C326.414 30.3338 325.661 30.3876 325.23 30.28C324.872 30.28 324.62 30.28 324.477 30.28V30.28Z" fill="#263238"/>
<path d="M222.504 139.308L188.923 139.112V132.97L222.57 133.101L222.504 139.308Z" fill="#FF725E"/>
<path opacity="0.1" d="M222.504 139.308L188.923 139.112V132.97L222.57 133.101L222.504 139.308Z" fill="black"/>
<path d="M321.092 170.995C321.092 170.929 321.354 170.995 321.876 170.799C322.334 170.603 323.052 170.08 323.118 169.035C323.118 166.944 323.118 163.939 323.118 160.019C323.118 158.059 323.118 155.881 323.118 153.485C323.118 152.919 323.118 152.331 323.118 151.721C323.118 151.068 323.118 150.48 322.726 149.957C322.399 149.5 321.811 149.173 321.223 149.173C320.526 149.173 319.829 149.173 319.132 149.173C313.579 149.173 307.242 149.173 300.251 149.173C272.288 149.043 233.676 148.912 191.013 148.716C190.425 148.716 189.902 148.977 189.576 149.435C189.184 149.957 189.184 150.48 189.184 151.199C189.184 152.505 189.184 153.812 189.184 155.119C189.184 157.776 189.184 160.389 189.184 162.959C189.14 164.265 189.118 165.572 189.118 166.879C189.184 167.467 189.053 168.251 189.184 168.708C189.314 169.231 189.706 169.688 190.229 169.884C190.49 170.015 190.686 170.015 191.013 170.015H191.993H193.888C195.151 170.058 196.414 170.08 197.677 170.08C207.738 170.08 217.473 170.145 226.685 170.211C245.175 170.341 261.835 170.407 275.816 170.537C289.798 170.603 301.1 170.733 308.94 170.799C312.86 170.799 315.866 170.864 317.956 170.864C318.958 170.908 319.742 170.929 320.308 170.929C320.657 170.929 320.918 170.951 321.092 170.995C320.918 170.995 320.657 170.995 320.308 170.995C319.742 170.995 318.958 170.995 317.956 170.995C315.866 170.995 312.86 171.06 308.94 171.06C301.1 171.06 289.798 170.995 275.816 170.995C261.835 170.929 245.175 170.929 226.685 170.864C217.473 170.799 207.738 170.733 197.677 170.733C196.414 170.733 195.151 170.733 193.888 170.733H191.993L191.013 170.668C190.686 170.733 190.294 170.668 189.968 170.537C189.249 170.211 188.726 169.623 188.53 168.904C188.465 168.512 188.465 168.12 188.465 167.859V166.879C188.465 165.572 188.465 164.265 188.465 162.959C188.465 160.389 188.487 157.776 188.53 155.119C188.53 153.812 188.53 152.505 188.53 151.199C188.53 150.807 188.53 150.545 188.596 150.153C188.596 149.761 188.792 149.369 188.988 149.043C189.445 148.455 190.229 148.063 191.013 148.063C233.676 148.324 272.288 148.52 300.251 148.651C307.242 148.716 313.579 148.781 319.132 148.781C319.829 148.781 320.526 148.803 321.223 148.847C321.942 148.847 322.66 149.173 323.052 149.761C323.51 150.349 323.444 151.133 323.444 151.721C323.444 152.331 323.444 152.919 323.444 153.485C323.401 155.881 323.379 158.059 323.379 160.019C323.314 163.939 323.314 166.944 323.249 169.035C323.183 170.145 322.399 170.668 321.876 170.864C321.528 170.995 321.267 171.038 321.092 170.995V170.995Z" fill="#E0E0E0"/>
<path d="M259.419 162.763L197.939 162.436V156.687L259.419 156.948V162.763Z" fill="#FF725E"/>
<path opacity="0.2" d="M259.419 162.763L197.939 162.436V156.687L259.419 156.948V162.763Z" fill="white"/>
<path d="M222.308 195.56L188.661 195.43L188.726 189.223L222.308 189.419V195.56Z" fill="#FF725E"/>
<path opacity="0.1" d="M222.308 195.56L188.661 195.43L188.726 189.223L222.308 189.419V195.56Z" fill="black"/>
<path d="M320.243 227.247C320.243 227.182 320.504 227.247 321.027 227.051C321.484 226.92 322.268 226.528 322.66 225.614C322.856 225.156 322.921 224.568 322.921 223.915C322.878 223.305 322.856 222.63 322.856 221.89C322.856 220.365 322.856 218.623 322.856 216.663C322.856 214.746 322.856 212.59 322.856 210.195C322.856 209.629 322.856 209.019 322.856 208.366C322.921 207.777 322.856 207.189 322.464 206.667C322.203 206.144 321.68 205.752 321.092 205.556C320.504 205.36 319.785 205.491 319.067 205.425C313.579 205.425 307.241 205.425 300.316 205.425C272.418 205.295 233.871 205.164 191.404 205.033C190.163 204.968 189.118 205.948 188.987 207.124C188.922 208.366 188.987 209.738 188.987 211.044C188.944 213.658 188.922 216.249 188.922 218.819C188.922 220.126 188.922 221.432 188.922 222.739C188.922 223.327 188.856 224.046 188.987 224.568C189.118 225.091 189.51 225.548 189.967 225.875C190.424 226.202 190.947 226.332 191.535 226.267L193.495 226.332C194.758 226.332 196 226.332 197.219 226.332C207.281 226.398 216.95 226.463 226.162 226.463C244.586 226.594 261.181 226.724 275.097 226.79C289.013 226.92 300.316 226.986 308.156 227.051C312.011 227.116 315.016 227.116 317.107 227.116C318.109 227.16 318.893 227.182 319.459 227.182C319.807 227.182 320.069 227.203 320.243 227.247C320.069 227.247 319.807 227.247 319.459 227.247C318.893 227.247 318.109 227.269 317.107 227.312C315.016 227.312 312.011 227.312 308.156 227.312C300.316 227.312 289.013 227.312 275.097 227.247C261.181 227.247 244.586 227.182 226.162 227.116C216.95 227.051 207.281 227.051 197.219 226.986C196 226.986 194.758 226.986 193.495 226.986H191.535C190.947 226.986 190.163 226.855 189.575 226.463C188.987 226.006 188.53 225.418 188.334 224.699C188.138 223.98 188.268 223.327 188.203 222.739C188.247 221.432 188.268 220.126 188.268 218.819C188.268 216.249 188.268 213.658 188.268 211.044C188.268 209.672 188.268 208.431 188.334 207.059C188.464 205.556 189.836 204.315 191.404 204.315C233.871 204.576 272.418 204.772 300.316 204.903C307.241 204.968 313.579 205.033 319.067 205.099C319.785 205.099 320.504 204.968 321.157 205.229C321.876 205.425 322.464 205.883 322.791 206.471C323.183 207.059 323.248 207.777 323.183 208.366C323.183 209.019 323.183 209.629 323.183 210.195C323.183 212.59 323.161 214.746 323.117 216.663C323.117 218.623 323.117 220.365 323.117 221.89C323.074 222.63 323.052 223.305 323.052 223.915C323.052 224.568 323.052 225.156 322.791 225.679C322.333 226.659 321.549 226.986 321.027 227.182C320.678 227.225 320.417 227.247 320.243 227.247V227.247Z" fill="#E0E0E0"/>
<path d="M222.046 254.23L188.465 254.099V247.958L222.046 248.089V254.23Z" fill="#FF725E"/>
<path opacity="0.1" d="M222.046 254.23L188.465 254.099V247.958L222.046 248.089V254.23Z" fill="black"/>
<path d="M319.983 285.917C319.983 285.917 320.244 285.917 320.767 285.786C321.224 285.59 322.008 285.198 322.4 284.284C322.661 283.826 322.661 283.304 322.661 282.65C322.661 281.997 322.661 281.3 322.661 280.56C322.661 279.035 322.64 277.315 322.596 275.398C322.596 273.438 322.596 271.26 322.596 268.865C322.596 268.299 322.596 267.711 322.596 267.101C322.661 266.447 322.596 265.859 322.269 265.337C321.943 264.814 321.42 264.422 320.832 264.226C320.244 264.095 319.525 264.161 318.872 264.161C313.319 264.095 306.981 264.095 300.056 264.095C272.158 263.965 233.677 263.834 191.145 263.703C189.968 263.638 188.858 264.618 188.727 265.794C188.727 267.035 188.727 268.407 188.727 269.714C188.684 272.327 188.662 274.941 188.662 277.554C188.662 278.817 188.662 280.102 188.662 281.409C188.662 282.062 188.596 282.716 188.727 283.238C188.858 283.761 189.25 284.284 189.707 284.545C190.165 284.872 190.687 285.002 191.341 285.002H193.235C194.498 285.002 195.761 285.002 197.025 285.002C207.021 285.068 216.69 285.133 225.902 285.198C244.326 285.264 260.921 285.394 274.902 285.46C288.819 285.59 300.056 285.656 307.896 285.721C311.751 285.786 314.756 285.786 316.847 285.852C317.849 285.852 318.633 285.852 319.199 285.852C319.547 285.895 319.809 285.917 319.983 285.917C319.809 285.917 319.547 285.917 319.199 285.917C318.633 285.96 317.849 285.982 316.847 285.982C314.756 285.982 311.751 285.982 307.896 285.982C300.056 285.982 288.819 285.982 274.902 285.917C260.921 285.917 244.326 285.852 225.902 285.786C216.69 285.786 207.021 285.721 197.025 285.656C195.761 285.656 194.498 285.656 193.235 285.656H191.341C190.687 285.721 189.903 285.525 189.315 285.133C188.727 284.741 188.27 284.088 188.074 283.434C187.878 282.65 188.008 282.062 188.008 281.409C188.008 280.102 188.008 278.817 188.008 277.554C188.008 274.941 188.008 272.327 188.008 269.714C188.074 268.407 188.008 267.101 188.074 265.729C188.204 264.226 189.642 262.985 191.145 262.985C233.677 263.246 272.158 263.442 300.056 263.638C306.981 263.638 313.319 263.703 318.872 263.769C319.525 263.769 320.244 263.703 320.963 263.899C321.616 264.095 322.204 264.553 322.531 265.141C322.923 265.729 322.988 266.447 322.988 267.101C322.988 267.711 322.966 268.299 322.923 268.865C322.923 271.26 322.923 273.438 322.923 275.398C322.879 277.315 322.857 279.035 322.857 280.56C322.857 281.3 322.836 281.997 322.792 282.65C322.857 283.238 322.792 283.892 322.531 284.349C322.073 285.329 321.289 285.721 320.767 285.852C320.418 285.939 320.157 285.96 319.983 285.917V285.917Z" fill="#E0E0E0"/>
<path d="M259.156 219.015L197.677 218.754L197.742 212.939L259.221 213.266L259.156 219.015Z" fill="#FF725E"/>
<path opacity="0.2" d="M259.156 219.015L197.677 218.754L197.742 212.939L259.221 213.266L259.156 219.015Z" fill="white"/>
<path d="M200.619 278.142C202.099 278.142 203.298 276.855 203.298 275.268C203.298 273.68 202.099 272.393 200.619 272.393C199.14 272.393 197.94 273.68 197.94 275.268C197.94 276.855 199.14 278.142 200.619 278.142Z" fill="#FF725E"/>
<path d="M208.982 278.142C210.462 278.142 211.661 276.855 211.661 275.268C211.661 273.68 210.462 272.393 208.982 272.393C207.503 272.393 206.304 273.68 206.304 275.268C206.304 276.855 207.503 278.142 208.982 278.142Z" fill="#FF725E"/>
<path d="M217.279 278.208C218.759 278.208 219.958 276.921 219.958 275.333C219.958 273.745 218.759 272.458 217.279 272.458C215.8 272.458 214.601 273.745 214.601 275.333C214.601 276.921 215.8 278.208 217.279 278.208Z" fill="#FF725E"/>
<path d="M225.577 278.208C227.057 278.208 228.256 276.921 228.256 275.333C228.256 273.745 227.057 272.458 225.577 272.458C224.098 272.458 222.898 273.745 222.898 275.333C222.898 276.921 224.098 278.208 225.577 278.208Z" fill="#FF725E"/>
<path d="M233.938 278.273C235.418 278.273 236.617 276.986 236.617 275.398C236.617 273.811 235.418 272.523 233.938 272.523C232.459 272.523 231.26 273.811 231.26 275.398C231.26 276.986 232.459 278.273 233.938 278.273Z" fill="#FF725E"/>
<path d="M242.235 278.273C243.715 278.273 244.914 276.986 244.914 275.398C244.914 273.81 243.715 272.523 242.235 272.523C240.756 272.523 239.557 273.81 239.557 275.398C239.557 276.986 240.756 278.273 242.235 278.273Z" fill="#FF725E"/>
<path d="M250.599 278.338C252.078 278.338 253.277 277.051 253.277 275.464C253.277 273.876 252.078 272.589 250.599 272.589C249.119 272.589 247.92 273.876 247.92 275.464C247.92 277.051 249.119 278.338 250.599 278.338Z" fill="#FF725E"/>
<path d="M258.896 278.404C260.376 278.404 261.575 277.116 261.575 275.529C261.575 273.941 260.376 272.654 258.896 272.654C257.417 272.654 256.218 273.941 256.218 275.529C256.218 277.116 257.417 278.404 258.896 278.404Z" fill="#FF725E"/>
<path d="M267.259 278.404C268.738 278.404 269.937 277.116 269.937 275.529C269.937 273.941 268.738 272.654 267.259 272.654C265.779 272.654 264.58 273.941 264.58 275.529C264.58 277.116 265.779 278.404 267.259 278.404Z" fill="#FF725E"/>
<g opacity="0.2">
<g opacity="0.2">
<path opacity="0.2" d="M200.619 278.142C202.099 278.142 203.298 276.855 203.298 275.268C203.298 273.68 202.099 272.393 200.619 272.393C199.14 272.393 197.94 273.68 197.94 275.268C197.94 276.855 199.14 278.142 200.619 278.142Z" fill="white"/>
</g>
<g opacity="0.2">
<path opacity="0.2" d="M208.982 278.142C210.462 278.142 211.661 276.855 211.661 275.268C211.661 273.68 210.462 272.393 208.982 272.393C207.503 272.393 206.304 273.68 206.304 275.268C206.304 276.855 207.503 278.142 208.982 278.142Z" fill="white"/>
</g>
<g opacity="0.2">
<path opacity="0.2" d="M217.279 278.208C218.759 278.208 219.958 276.921 219.958 275.333C219.958 273.745 218.759 272.458 217.279 272.458C215.8 272.458 214.601 273.745 214.601 275.333C214.601 276.921 215.8 278.208 217.279 278.208Z" fill="white"/>
</g>
<g opacity="0.2">
<path opacity="0.2" d="M225.577 278.208C227.057 278.208 228.256 276.921 228.256 275.333C228.256 273.745 227.057 272.458 225.577 272.458C224.098 272.458 222.898 273.745 222.898 275.333C222.898 276.921 224.098 278.208 225.577 278.208Z" fill="white"/>
</g>
<g opacity="0.2">
<path opacity="0.2" d="M233.938 278.273C235.418 278.273 236.617 276.986 236.617 275.398C236.617 273.811 235.418 272.523 233.938 272.523C232.459 272.523 231.26 273.811 231.26 275.398C231.26 276.986 232.459 278.273 233.938 278.273Z" fill="white"/>
</g>
<g opacity="0.2">
<path opacity="0.2" d="M242.235 278.273C243.715 278.273 244.914 276.986 244.914 275.398C244.914 273.81 243.715 272.523 242.235 272.523C240.756 272.523 239.557 273.81 239.557 275.398C239.557 276.986 240.756 278.273 242.235 278.273Z" fill="white"/>
</g>
<g opacity="0.2">
<path opacity="0.2" d="M250.599 278.338C252.078 278.338 253.277 277.051 253.277 275.464C253.277 273.876 252.078 272.589 250.599 272.589C249.119 272.589 247.92 273.876 247.92 275.464C247.92 277.051 249.119 278.338 250.599 278.338Z" fill="white"/>
</g>
<g opacity="0.2">
<path opacity="0.2" d="M258.896 278.404C260.376 278.404 261.575 277.116 261.575 275.529C261.575 273.941 260.376 272.654 258.896 272.654C257.417 272.654 256.218 273.941 256.218 275.529C256.218 277.116 257.417 278.404 258.896 278.404Z" fill="white"/>
</g>
<g opacity="0.2">
<path opacity="0.2" d="M267.259 278.404C268.738 278.404 269.937 277.116 269.937 275.529C269.937 273.941 268.738 272.654 267.259 272.654C265.779 272.654 264.58 273.941 264.58 275.529C264.58 277.116 265.779 278.404 267.259 278.404Z" fill="white"/>
</g>
</g>
<path d="M264.971 96.0568L247.658 95.9915C247.44 90.6776 249.77 87.6505 254.648 86.9101C252.884 86.1914 251.578 84.362 251.643 82.206C251.643 79.3967 253.734 77.11 256.412 77.11C259.026 77.1753 261.116 79.462 261.116 82.206C261.116 84.362 259.875 86.1914 258.111 86.9101C262.946 87.6505 265.232 90.6994 264.971 96.0568V96.0568Z" fill="#FF725E"/>
<path opacity="0.1" d="M264.971 96.0568L247.658 95.9915C247.44 90.6776 249.77 87.6505 254.648 86.9101C252.884 86.1914 251.578 84.362 251.643 82.206C251.643 79.3967 253.734 77.11 256.412 77.11C259.026 77.1753 261.116 79.462 261.116 82.206C261.116 84.362 259.875 86.1914 258.111 86.9101C262.946 87.6505 265.232 90.6994 264.971 96.0568V96.0568Z" fill="black"/>
<path d="M286.139 108.601L224.529 108.34V100.957L286.204 101.218L286.139 108.601Z" fill="#FF725E"/>
<path opacity="0.2" d="M286.139 108.601L224.529 108.34V100.957L286.204 101.218L286.139 108.601Z" fill="white"/>
<path d="M306.047 358.167L209.157 357.775C208.177 357.775 207.393 356.664 207.393 355.292L207.458 329.942C207.458 328.636 208.307 327.525 209.287 327.525L306.177 327.982C307.157 327.982 308.007 329.093 307.941 330.465L307.876 355.749C307.876 357.121 307.027 358.232 306.047 358.167V358.167Z" fill="#FF725E"/>
<path d="M237.517 339.719C237.461 339.817 237.4 339.889 237.335 339.936C237.274 339.978 237.197 339.999 237.104 339.999C237.006 339.999 236.899 339.964 236.782 339.894C236.67 339.819 236.535 339.738 236.376 339.649C236.217 339.56 236.031 339.481 235.816 339.411C235.606 339.336 235.356 339.299 235.067 339.299C234.806 339.299 234.577 339.332 234.381 339.397C234.185 339.458 234.019 339.544 233.884 339.656C233.753 339.768 233.655 339.903 233.59 340.062C233.525 340.216 233.492 340.386 233.492 340.573C233.492 340.811 233.557 341.009 233.688 341.168C233.823 341.327 234.001 341.462 234.22 341.574C234.439 341.686 234.689 341.786 234.969 341.875C235.249 341.964 235.536 342.059 235.83 342.162C236.124 342.26 236.411 342.377 236.691 342.512C236.971 342.643 237.221 342.811 237.44 343.016C237.659 343.217 237.834 343.464 237.965 343.758C238.1 344.052 238.168 344.409 238.168 344.829C238.168 345.286 238.089 345.716 237.93 346.117C237.776 346.514 237.547 346.861 237.244 347.16C236.945 347.454 236.579 347.687 236.145 347.86C235.711 348.028 235.214 348.112 234.654 348.112C234.332 348.112 234.015 348.079 233.702 348.014C233.389 347.953 233.088 347.865 232.799 347.748C232.514 347.631 232.246 347.491 231.994 347.328C231.742 347.165 231.518 346.983 231.322 346.782L231.875 345.879C231.922 345.814 231.982 345.76 232.057 345.718C232.132 345.671 232.211 345.648 232.295 345.648C232.412 345.648 232.538 345.697 232.673 345.795C232.808 345.888 232.969 345.993 233.156 346.11C233.343 346.227 233.56 346.334 233.807 346.432C234.059 346.525 234.36 346.572 234.71 346.572C235.247 346.572 235.662 346.446 235.956 346.194C236.25 345.937 236.397 345.571 236.397 345.095C236.397 344.829 236.329 344.612 236.194 344.444C236.063 344.276 235.888 344.136 235.669 344.024C235.45 343.907 235.2 343.809 234.92 343.73C234.64 343.651 234.355 343.564 234.066 343.471C233.777 343.378 233.492 343.266 233.212 343.135C232.932 343.004 232.682 342.834 232.463 342.624C232.244 342.414 232.066 342.153 231.931 341.84C231.8 341.523 231.735 341.133 231.735 340.671C231.735 340.302 231.807 339.943 231.952 339.593C232.101 339.243 232.316 338.933 232.596 338.662C232.876 338.391 233.221 338.174 233.632 338.011C234.043 337.848 234.514 337.766 235.046 337.766C235.643 337.766 236.194 337.859 236.698 338.046C237.202 338.233 237.631 338.494 237.986 338.83L237.517 339.719ZM241.701 348H239.811V337.878H241.701V348ZM252.311 342.925V347.02C251.798 347.398 251.249 347.676 250.666 347.853C250.087 348.026 249.467 348.112 248.804 348.112C247.978 348.112 247.229 347.984 246.557 347.727C245.89 347.47 245.318 347.113 244.842 346.656C244.371 346.199 244.007 345.653 243.75 345.018C243.493 344.383 243.365 343.69 243.365 342.939C243.365 342.178 243.489 341.481 243.736 340.846C243.983 340.211 244.333 339.665 244.786 339.208C245.243 338.751 245.796 338.396 246.445 338.144C247.094 337.892 247.822 337.766 248.629 337.766C249.04 337.766 249.422 337.799 249.777 337.864C250.136 337.929 250.468 338.02 250.771 338.137C251.079 338.249 251.359 338.387 251.611 338.55C251.863 338.713 252.094 338.893 252.304 339.089L251.765 339.943C251.681 340.078 251.571 340.162 251.436 340.195C251.301 340.223 251.154 340.188 250.995 340.09C250.841 340.001 250.687 339.913 250.533 339.824C250.379 339.735 250.206 339.658 250.015 339.593C249.828 339.528 249.616 339.474 249.378 339.432C249.145 339.39 248.874 339.369 248.566 339.369C248.067 339.369 247.614 339.453 247.208 339.621C246.807 339.789 246.464 340.029 246.179 340.342C245.894 340.655 245.675 341.03 245.521 341.469C245.367 341.908 245.29 342.398 245.29 342.939C245.29 343.518 245.372 344.036 245.535 344.493C245.703 344.946 245.936 345.331 246.235 345.648C246.538 345.961 246.902 346.201 247.327 346.369C247.752 346.532 248.225 346.614 248.748 346.614C249.121 346.614 249.455 346.574 249.749 346.495C250.043 346.416 250.33 346.308 250.61 346.173V344.339H249.336C249.215 344.339 249.119 344.306 249.049 344.241C248.984 344.171 248.951 344.087 248.951 343.989V342.925H252.311ZM262.658 337.878V348H261.692C261.543 348 261.417 347.977 261.314 347.93C261.216 347.879 261.12 347.795 261.027 347.678L255.742 340.93C255.77 341.238 255.784 341.523 255.784 341.784V348H254.125V337.878H255.112C255.191 337.878 255.259 337.883 255.315 337.892C255.376 337.897 255.427 337.911 255.469 337.934C255.516 337.953 255.56 337.983 255.602 338.025C255.644 338.062 255.691 338.114 255.742 338.179L261.048 344.955C261.034 344.792 261.022 344.631 261.013 344.472C261.004 344.313 260.999 344.166 260.999 344.031V337.878H262.658ZM272.39 346.481C272.754 346.481 273.079 346.42 273.363 346.299C273.653 346.178 273.895 346.007 274.091 345.788C274.287 345.569 274.437 345.303 274.539 344.99C274.647 344.677 274.7 344.327 274.7 343.94V337.878H276.583V343.94C276.583 344.542 276.485 345.1 276.289 345.613C276.098 346.122 275.82 346.563 275.456 346.936C275.097 347.305 274.658 347.594 274.14 347.804C273.622 348.009 273.039 348.112 272.39 348.112C271.737 348.112 271.151 348.009 270.633 347.804C270.115 347.594 269.674 347.305 269.31 346.936C268.951 346.563 268.673 346.122 268.477 345.613C268.286 345.1 268.19 344.542 268.19 343.94V337.878H270.073V343.933C270.073 344.32 270.125 344.67 270.227 344.983C270.335 345.296 270.486 345.564 270.682 345.788C270.883 346.007 271.126 346.178 271.41 346.299C271.7 346.42 272.026 346.481 272.39 346.481ZM281.997 342.967C282.342 342.967 282.643 342.925 282.9 342.841C283.157 342.752 283.369 342.629 283.537 342.47C283.71 342.307 283.838 342.111 283.922 341.882C284.006 341.649 284.048 341.39 284.048 341.105C284.048 340.834 284.006 340.589 283.922 340.37C283.838 340.151 283.712 339.964 283.544 339.81C283.376 339.656 283.164 339.539 282.907 339.46C282.65 339.376 282.347 339.334 281.997 339.334H280.59V342.967H281.997ZM281.997 337.878C282.674 337.878 283.259 337.957 283.754 338.116C284.249 338.275 284.657 338.496 284.979 338.781C285.301 339.066 285.539 339.406 285.693 339.803C285.852 340.2 285.931 340.634 285.931 341.105C285.931 341.595 285.849 342.045 285.686 342.456C285.523 342.862 285.278 343.212 284.951 343.506C284.624 343.8 284.214 344.029 283.719 344.192C283.229 344.355 282.655 344.437 281.997 344.437H280.59V348H278.707V337.878H281.997Z" fill="white"/>
<path d="M125.987 533.727C122.01 534.983 97.8737 534.425 92.0139 534.076L90.6885 533.937L90.828 515.939L112.244 516.078V528.007C124.336 530.937 128.917 532.844 125.987 533.727V533.727Z" fill="#FF7F28"/>
<path d="M108.616 532.96C118.479 532.96 126.475 532.804 126.475 532.611C126.475 532.419 118.479 532.262 108.616 532.262C98.7533 532.262 90.7578 532.419 90.7578 532.611C90.7578 532.804 98.7533 532.96 108.616 532.96Z" fill="#263238"/>
<path d="M112.593 530.449C112.454 530.309 112.593 529.681 113.082 529.054C113.5 528.495 114.058 528.147 114.198 528.286C114.337 528.426 114.058 528.914 113.64 529.542C113.221 530.1 112.803 530.518 112.593 530.449V530.449Z" fill="#263238"/>
<path d="M113.988 531.216C113.778 531.146 113.918 530.449 114.337 529.681C114.755 528.984 115.313 528.495 115.453 528.635C115.592 528.775 115.313 529.333 114.964 530.03C114.546 530.728 114.197 531.286 113.988 531.216Z" fill="#263238"/>
<path d="M97.1757 532.611C97.1059 532.611 96.7571 532.332 96.3385 531.774C95.8502 531.286 95.2224 530.518 94.455 529.96C93.6877 529.333 92.7808 528.984 92.153 528.914C91.4554 528.844 91.0368 528.914 91.0368 528.844C90.9671 528.775 91.3856 528.426 92.153 528.426C92.9203 528.356 93.9667 528.635 94.8736 529.333C95.7805 530.03 96.4083 530.867 96.7571 531.495C97.1059 532.123 97.2454 532.541 97.1757 532.611V532.611Z" fill="#263238"/>
<path d="M112.663 528.216C112.802 528.356 112.453 528.774 111.825 528.984C111.198 529.193 110.639 529.123 110.639 528.914C110.57 528.774 111.058 528.495 111.546 528.286C112.104 528.147 112.593 528.007 112.663 528.216V528.216Z" fill="#263238"/>
<path d="M112.384 527.03C112.384 527.24 111.826 527.379 111.058 527.379C110.361 527.449 109.803 527.24 109.803 527.1C109.803 526.891 110.361 526.682 111.058 526.682C111.756 526.682 112.314 526.821 112.384 527.03Z" fill="#263238"/>
<path d="M178.655 533.727C174.678 534.983 150.542 534.216 144.682 533.867L143.356 533.797L143.496 515.939L164.912 516.078V528.007C177.004 530.937 181.585 532.844 178.655 533.727V533.727Z" fill="#FF7F28"/>
<path d="M161.284 533.03C171.147 533.03 179.143 532.874 179.143 532.681C179.143 532.488 171.147 532.332 161.284 532.332C151.421 532.332 143.426 532.488 143.426 532.681C143.426 532.874 151.421 533.03 161.284 533.03Z" fill="#263238"/>
<path d="M165.261 530.449C165.122 530.309 165.261 529.681 165.75 529.054C166.168 528.495 166.726 528.147 166.866 528.286C167.005 528.426 166.726 528.914 166.308 529.542C165.889 530.1 165.471 530.518 165.261 530.449V530.449Z" fill="#263238"/>
<path d="M166.656 531.216C166.446 531.146 166.586 530.449 167.005 529.681C167.423 528.984 167.981 528.495 168.121 528.635C168.26 528.775 167.981 529.333 167.632 530.03C167.214 530.728 166.865 531.286 166.656 531.216Z" fill="#263238"/>
<path d="M149.844 532.611C149.774 532.611 149.495 532.332 149.007 531.774C148.518 531.286 147.89 530.518 147.123 529.96C146.356 529.333 145.449 528.984 144.821 528.914C144.193 528.844 143.705 528.914 143.705 528.844C143.635 528.775 144.054 528.426 144.821 528.426C145.588 528.356 146.635 528.635 147.542 529.333C148.448 530.03 149.076 530.867 149.425 531.495C149.774 532.123 149.913 532.541 149.844 532.611V532.611Z" fill="#263238"/>
<path d="M165.33 528.216C165.47 528.356 165.121 528.774 164.493 528.984C163.866 529.193 163.307 529.123 163.307 528.914C163.238 528.774 163.726 528.495 164.214 528.286C164.772 528.147 165.261 528.007 165.33 528.216V528.216Z" fill="#263238"/>
<path d="M165.052 527.03C165.052 527.24 164.494 527.379 163.726 527.379C163.029 527.449 162.471 527.24 162.471 527.1C162.471 526.891 163.029 526.682 163.726 526.682C164.424 526.682 164.982 526.821 165.052 527.03Z" fill="#263238"/>
<path d="M242.973 176.629C241.299 178.303 238.997 180.187 236.764 181.931C214.72 209.741 201.582 224.6 197.35 226.507C192.188 228.809 161.703 228.321 149.844 228.111L138.822 264.386L147.891 299.126L87.3396 299.963L101.501 264.874L99.1987 256.782L93.897 245.83C80.9217 274.78 71.9228 320.194 68.7836 335.68L69.0626 337.145C69.0161 338.866 69.3417 341.215 70.0393 344.191C70.2485 345.377 70.7368 346.423 71.3647 347.47C72.132 348.656 73.1784 350.26 74.0155 350.958C75.1317 351.795 74.5736 353.469 73.3877 353.399C72.132 353.399 69.1324 351.097 67.1791 347.26C65.2259 343.354 63.7609 350.051 63.1331 352.492C62.575 354.934 60.4125 362.398 59.5753 362.817C58.2499 363.375 57.343 362.119 57.9709 359.678C58.5987 357.236 59.9939 349.911 58.7382 349.632C57.8546 349.493 56.4827 353.562 54.6224 361.84C54.5294 363.7 53.9713 364.537 52.9482 364.351C50.2276 363.933 54.1341 350.958 54.5527 349.702C54.8317 348.865 53.4365 348.516 53.2272 349.493C52.9482 350.469 50.7159 361.98 47.9255 361.561C45.763 361.282 51.0647 350.818 50.1578 348.167C49.3207 345.516 47.0186 356.469 44.9956 356.12C44.2283 355.98 43.6702 355.771 45.9025 349.632C47.0884 346.493 49.8788 340.982 52.4599 336.169C55.6688 302.963 73.8063 243.877 81.7588 218.903C84.2004 211.229 90.6881 205.649 98.5709 204.254C105.128 203.207 113.918 202.161 124.452 202.021C127.87 201.951 128.498 201.463 131.986 201.324C134.706 201.184 137.915 201.603 140.078 201.882C148.03 202.719 187.584 206.835 189.607 204.951C191.049 203.556 201.931 193.115 222.254 173.629L222.324 173.699C222.673 172.792 223.51 170.699 224.208 167.421C224.487 166.235 224.556 165.049 224.347 163.863C224.208 162.468 223.859 160.584 223.371 159.607C222.812 158.352 223.998 157.026 225.045 157.584C226.161 158.212 227.905 161.491 228.044 165.816C228.184 170.211 232.37 164.77 233.904 162.747C235.509 160.793 240.531 154.934 241.578 154.934C242.973 154.934 243.252 156.468 241.648 158.422C240.043 160.375 235.718 166.444 236.764 167.211C237.974 167.211 238.857 167.374 239.415 167.7C239.694 167.909 239.834 168.118 239.764 168.397C239.671 169.234 239.671 169.909 239.764 170.42C240.927 170.327 241.601 170.536 241.787 171.048C241.927 171.56 241.927 172.373 241.787 173.49C242.717 173.304 243.368 173.397 243.74 173.769C244.531 174.606 244.275 175.559 242.973 176.629V176.629Z" fill="#FFBE9D"/>
<path d="M65.7842 268.084C74.2018 234.087 80.9685 215.113 86.0842 211.16C93.7577 205.23 94.8739 201.812 113.29 201.254C124.638 202.975 130.94 202.068 132.195 198.533L186.259 203.905L187.445 229.437L149.844 228.111C150.263 229.693 150.658 232.925 151.03 237.808C151.216 240.273 148.984 243.854 144.333 248.551C141.961 255.573 141.124 260.154 141.822 262.293C142.938 265.502 148.031 285.593 147.891 294.243L86.0144 296.127C85.1308 290.965 88.1072 283.175 94.9436 272.757C96.5714 270.2 97.827 267.804 98.7106 265.572C99.5012 263.619 98.4083 254.597 95.4319 238.506C89.4326 258.271 85.8517 270.153 84.689 274.153L65.7842 268.084Z" fill="#FF7F28"/>
<path d="M121.243 268.084C121.243 268.223 119.988 268.293 118.034 268.293C116.011 268.223 113.221 268.153 110.151 267.804C107.082 267.525 104.361 267.107 102.338 266.688C100.385 266.27 99.1992 265.991 99.1992 265.851C99.1992 265.781 100.455 265.921 102.478 266.2C104.431 266.409 107.152 266.758 110.221 267.107C113.291 267.386 116.011 267.595 118.034 267.735C120.057 267.874 121.243 268.014 121.243 268.084V268.084Z" fill="#263238"/>
<path d="M125.498 262.852C125.498 262.921 124.243 263.41 122.15 263.968C119.987 264.596 116.988 265.223 113.639 265.572C110.291 265.991 107.291 266.06 105.059 265.991C102.826 265.921 101.501 265.781 101.501 265.712C101.501 265.572 102.896 265.572 105.059 265.502C107.221 265.433 110.291 265.293 113.569 264.875C116.918 264.456 119.848 263.968 122.01 263.479C124.173 263.061 125.498 262.712 125.498 262.852V262.852Z" fill="#263238"/>
<path d="M146.287 239.343C146.426 239.412 146.217 240.598 145.868 242.552C145.519 244.435 144.961 247.086 144.264 250.016C143.566 252.946 142.799 255.527 142.241 257.41C141.682 259.294 141.264 260.41 141.124 260.41C141.055 260.41 141.264 259.154 141.752 257.271C142.241 255.108 142.868 252.597 143.566 249.876C144.194 247.086 144.822 244.575 145.38 242.412C145.868 240.529 146.217 239.343 146.287 239.343V239.343Z" fill="#263238"/>
<path d="M85.3164 270.595C85.2466 270.804 80.9913 269.758 75.8291 268.362C70.5971 266.967 66.4116 265.642 66.4813 265.433C66.4813 265.223 70.8064 266.27 75.9686 267.665C81.2006 269.06 85.3861 270.386 85.3164 270.595Z" fill="#263238"/>
<path d="M150.472 227.763C150.472 227.763 149.914 227.832 148.938 227.763C147.891 227.623 146.357 227.414 144.682 226.716C142.938 226.088 140.915 224.972 139.102 223.368C137.288 221.693 135.614 219.461 134.567 216.81C133.521 214.159 133.172 211.439 133.312 208.928C133.451 206.486 134.149 204.254 135.195 202.719C136.311 201.184 137.776 200.417 138.753 200.138C139.241 199.998 139.66 199.929 139.939 199.998C140.218 199.998 140.357 199.998 140.357 199.998C140.357 200.068 139.799 200.068 138.823 200.417C137.916 200.696 136.59 201.533 135.614 202.998C133.73 205.998 133.242 211.439 135.265 216.531C136.241 219.112 137.776 221.275 139.52 222.879C141.334 224.484 143.148 225.53 144.822 226.228C148.17 227.623 150.542 227.623 150.472 227.763V227.763Z" fill="#263238"/>
<path d="M183.05 228.948C183.243 228.948 183.399 223.202 183.399 216.113C183.399 209.024 183.243 203.277 183.05 203.277C182.857 203.277 182.701 209.024 182.701 216.113C182.701 223.202 182.857 228.948 183.05 228.948Z" fill="#263238"/>
<path d="M127.591 204.044L113.36 203.137L111.058 163.375L126.474 151.167L140.496 158.352C140.822 170.583 140.822 179.349 140.496 184.651C140.171 189.953 137.45 192.883 132.334 193.441C132.102 195.766 131.939 197.975 131.846 200.068C131.706 202.37 129.823 204.184 127.591 204.044Z" fill="#FFBE9D"/>
<path d="M133.241 178.373C133.241 178.373 133.241 178.512 133.102 178.652C132.962 178.861 132.683 179.07 132.195 179.07C131.358 179.001 130.451 178.024 130.172 176.838C129.963 176.21 129.963 175.582 130.102 175.094C130.242 174.536 130.521 174.048 130.939 173.838C131.149 173.769 131.358 173.769 131.567 173.908C131.707 173.978 131.776 174.117 131.846 174.187C131.986 174.466 131.916 174.606 131.846 174.606C131.846 174.606 131.846 174.466 131.707 174.327C131.637 174.117 131.358 173.978 131.079 174.187C130.73 174.257 130.59 174.676 130.521 175.164C130.381 175.652 130.381 176.21 130.521 176.699C130.8 177.815 131.567 178.722 132.265 178.791C132.544 178.791 132.823 178.722 132.962 178.582C133.172 178.443 133.172 178.303 133.241 178.373Z" fill="#EB996E"/>
<path d="M144.124 161.561C142.589 164.839 140.357 168.048 137.148 169.583C135.613 170.281 134.009 170.63 132.404 171.257C130.87 171.955 129.405 173.001 128.847 174.676C128.358 176.071 128.777 177.815 129.754 178.861C130.8 179.908 132.474 180.256 133.8 179.698C133.8 180.396 133.73 181.07 133.59 181.721C133.544 181.954 133.497 182.163 133.451 182.349C133.311 182.628 133.311 182.977 133.172 183.256C128.498 199.859 127.452 200.835 131.149 218.694C132.335 224.344 133.939 230.134 132.893 235.855C132.056 240.947 129.056 245.551 125.219 248.83C121.382 252.178 116.639 254.271 111.825 255.527C105.268 257.201 98.2223 257.48 91.8045 255.317C85.3168 253.225 79.5268 248.551 76.5969 242.203C73.667 235.855 73.9461 227.832 77.9223 222.112C79.7361 219.531 82.3172 217.368 83.4333 214.369C84.7588 210.95 84.0612 206.974 85.4564 203.626C86.9911 199.719 90.9674 197.626 93.688 194.487C98.6409 188.837 100.734 178.373 101.152 170.699L101.222 170.769C101.292 168.537 101.78 166.304 102.547 164.351C103.733 160.933 105.547 158.212 108.617 158.491C108.617 152.632 114.965 149.213 120.266 147.33C125.498 145.377 131.358 146.004 136.73 147.539C140.287 148.586 144.194 150.399 145.24 154.027C146.008 156.538 145.17 159.189 144.124 161.561V161.561Z" fill="#263238"/>
<path d="M133.8 178.652C133.8 178.652 134.079 179.21 134.498 180.047C134.916 180.954 135.474 182.21 136.102 183.605L136.242 183.884H135.893C135.428 183.93 134.963 183.977 134.498 184.023C133.521 184.093 132.754 184.233 131.777 184.233C131.638 184.163 131.428 184.023 131.428 183.884C131.359 183.744 131.359 183.605 131.428 183.465C131.428 183.256 131.498 183.116 131.498 182.907L131.777 181.931C132.056 180.745 132.335 179.977 132.335 179.977C132.405 180.047 132.335 180.814 132.056 182L131.847 182.977C131.777 183.326 131.707 183.884 131.847 183.814C132.544 183.814 133.521 183.675 134.498 183.605C134.963 183.558 135.428 183.512 135.893 183.465L135.684 183.814C135.126 182.349 134.637 181.093 134.288 180.187C133.94 179.28 133.73 178.722 133.8 178.652V178.652Z" fill="#FF7F28"/>
<path d="M86.0141 296.127L147.891 294.243L174.818 399.371L169.865 519.985H137.078L141.124 401.952L117.197 328.774L120.894 524.659L87.8279 525.147L84.3399 341.052C84.2004 335.89 82.5262 324.379 83.154 319.287L86.0141 296.127Z" fill="#263238"/>
<path d="M125.428 330.239C125.428 330.379 124.312 330.309 122.429 330.1C120.545 329.89 118.034 329.472 115.174 328.914C112.383 328.356 109.872 327.728 108.058 327.17C106.245 326.681 105.198 326.263 105.198 326.193C105.268 325.984 109.733 327.1 115.313 328.216C120.894 329.332 125.498 330.03 125.428 330.239Z" fill="#455A64"/>
<path d="M152.983 513.707C162.114 513.707 169.516 513.55 169.516 513.358C169.516 513.165 162.114 513.009 152.983 513.009C143.852 513.009 136.45 513.165 136.45 513.358C136.45 513.55 143.852 513.707 152.983 513.707Z" fill="#455A64"/>
<path d="M104.57 519.915C113.431 519.915 120.615 519.759 120.615 519.566C120.615 519.374 113.431 519.217 104.57 519.217C95.7088 519.217 88.5254 519.374 88.5254 519.566C88.5254 519.759 95.7088 519.915 104.57 519.915Z" fill="#455A64"/>
<path d="M116.359 519.008C116.15 519.008 115.313 476.246 114.406 423.438C113.569 370.63 113.011 327.867 113.22 327.867C113.429 327.867 114.266 370.63 115.103 423.438C116.01 476.246 116.568 519.008 116.359 519.008Z" fill="#455A64"/>
<path d="M165.121 513.358C165.121 513.358 165.121 513.172 165.121 512.8C165.121 512.381 165.121 511.823 165.121 511.125C165.191 509.591 165.261 507.428 165.331 504.708C165.54 499.057 165.819 490.965 166.168 481.059C166.935 461.108 167.982 433.553 169.167 403.138C169.167 402.859 169.167 402.58 169.167 402.301V402.44C161.843 373.071 155.216 346.493 150.402 327.309C148.03 317.682 146.147 309.939 144.821 304.498C144.194 301.847 143.705 299.754 143.356 298.359C143.17 297.661 143.031 297.103 142.938 296.685C142.891 296.359 142.868 296.173 142.868 296.127C142.868 296.127 142.915 296.313 143.008 296.685C143.147 297.103 143.31 297.638 143.496 298.289C143.845 299.754 144.403 301.777 145.1 304.428C146.496 309.869 148.449 317.613 150.891 327.17C155.774 346.354 162.471 372.932 169.865 402.231L169.935 402.301V402.37C169.888 402.603 169.865 402.859 169.865 403.138C168.609 433.553 167.493 461.108 166.656 481.059C166.238 491.035 165.889 499.057 165.61 504.708C165.47 507.428 165.4 509.591 165.331 511.125C165.284 511.823 165.238 512.381 165.191 512.8C165.191 513.172 165.168 513.358 165.121 513.358V513.358Z" fill="#455A64"/>
<path d="M154.449 399.859C154.518 400.068 151.24 400.766 147.263 401.464C144.194 401.952 141.613 402.37 140.497 402.37V402.091C140.869 402.231 141.055 402.324 141.055 402.37C141.055 402.417 140.846 402.417 140.427 402.37H139.59L140.427 402.091C141.543 401.812 144.124 401.254 147.124 400.766C151.17 400.068 154.449 399.65 154.449 399.859Z" fill="#455A64"/>
<path d="M153.82 403.835C153.82 404.045 150.89 403.835 147.332 403.556C143.775 403.277 140.845 403.068 140.845 402.859C140.845 402.649 143.775 402.58 147.402 402.859C150.96 403.138 153.89 403.696 153.82 403.835V403.835Z" fill="#455A64"/>
<path opacity="0.2" d="M85.8051 297.871C85.8516 297.638 85.9214 297.057 86.0144 296.127C106.245 295.011 127.661 295.429 147.891 294.243C132.265 298.08 115.313 299.685 99.3384 301.498C96.8271 301.777 94.3158 302.056 91.8742 301.638C89.3628 301.219 87.2701 300.452 85.7354 298.359" fill="black"/>
<g opacity="0.2">
<path opacity="0.2" d="M117.196 328.774L118.033 371.188L106.593 326.891L117.196 328.774Z" fill="black"/>
</g>
</svg>
